<svg width="518" height="330" fill="none" xmlns="http://www.w3.org/2000/svg"><g clip-path="url('#clip0_21_2598')" fill="#fff"><path d="M0 328.2h14.6v-76.5h61.7v-14.6H0v91.1ZM30.7 171H14.6v-36.5H0v91.1h14.6v-40h14.7l28.8 40h18.2v-2.1l-31.6-44.3v-2.5l31.7-39.5v-2.7H59.2L30.7 171ZM234.9 154.4h2.9v71.2h15v-91.1h-22.5l-36.1 71.3h-2.9v-71.3h-15v91.1h22.5l36.1-71.2ZM411.3 257h2.9v71.2h14.9v-91.1h-22.4l-36.1 71.3h-2.9v-71.3h-15v91.1h22.5l36.1-71.2ZM499.5 257h2.9v71.2h14.9v-91.1h-22.4l-36.1 71.3h-2.9v-71.3h-15v91.1h22.4l36.2-71.2ZM341 225.6v-91.1h-76.5v91.1h14.6v-76.5h47.3v76.5H341ZM429.1 134.5h-76.4v14.6h30.9v76.5h14.6v-76.5h30.9v-14.6ZM249.5 306v-35c0-21.3-10.4-34.8-35.7-34.8-25.5 0-38.8 15-37.2 39.8h14.6c0-17.3 6.7-25.2 22.6-25.2 13.7 0 21.2 7.3 21.2 19v4l-33.9 6c-16 2.9-24.1 11.5-24.1 23.9 0 17.9 13.5 25.5 28.1 25.5 11.8 0 22.3-5.5 30.2-13.5h2.1c.9 6.7 5.8 12.6 15 12.6h6.4V314h-1.3c-6.2 0-8-2-8-8Zm-43.3 9.8c-8.4 0-14.8-4.4-14.8-11.7 0-5.8 3.8-8.9 11.3-10.4l32.1-6v3.3c.1 14.6-11.8 24.8-28.6 24.8ZM477.4 132.8c-25.5 0-39.9 17-39.9 44.5v4.9c0 27.5 14.4 44.5 39.9 44.5 25.4 0 39.9-17 39.9-44.5v-4.9c0-27.6-14.6-44.5-39.9-44.5Zm25.3 49c0 19-8.8 30.3-25.4 30.3-16.8 0-25.4-11.3-25.4-30.3v-4.2c0-19 8.6-30.3 25.4-30.3 16.6 0 25.4 11.3 25.4 30.3v4.2ZM312.6 240.9h-2.9v-9.1h-13.9v9.1h-2.9c-23.2 0-30.6 17.5-30.6 37.6v3.6c0 20.1 7.5 37.6 30.6 37.6h2.9v8.5h13.9v-8.5h2.9c23.2 0 30.6-17.5 30.6-37.6v-3.6c0-20.1-7.4-37.6-30.6-37.6Zm-20.1 64.6c-11.3 0-15.7-7.1-15.7-22.6v-5.1c0-15.5 4.4-22.6 15.7-22.6h3.3v50.3h-3.3Zm36.1-22.6c0 15.5-4.4 22.6-15.7 22.6h-3.3v-50.3h3.3c11.3 0 15.7 7.1 15.7 22.6v5.1ZM132.1 134.5h-44v91.1h14.6v-30.4h29.4c21.5 0 32.3-10.6 32.3-30.5 0-20.4-11.1-30.2-32.3-30.2Zm-.2 46.1h-29.2V149h29.2c11.7 0 17.9 5.1 17.9 15.7 0 10.5-6.2 15.9-17.9 15.9ZM132.1 237.1h-44v91.1h14.6v-30.4h29.4c21.5 0 32.3-10.6 32.3-30.5 0-20.4-11.1-30.2-32.3-30.2Zm-.2 46.1h-29.2v-31.6h29.2c11.7 0 17.9 5.1 17.9 15.7 0 10.5-6.2 15.9-17.9 15.9ZM39.7 68.6h-3.1L17.5 31.9H0v91.2h14.6V59.8h2.9l13.8 25.4H45l13.9-25.4h2.9v63.3h14.6V31.9H58.9L39.7 68.6ZM134.9 79.6H123l-18.1-47.7H88.1v2.7l24.6 59.3h16.5l-3 7.6c-2.2 5.6-4 6.5-9.8 6.5h-11.7v14.9h12.2c13.3 0 19.5-4.5 23.9-14.6l29-73.9v-2.7h-16.4l-18.5 47.9ZM214.3 110.3c-16.2 0-23.2-7.5-23.2-21.7h-14.6c-.5 22.2 11.3 36.3 37.9 36.3 24.3 0 37.4-12.4 37.4-28.3 0-8.7-4-15.2-9.1-18.3V76c5-3.4 9.1-10.1 9.1-17.7 0-16.4-13.3-28.3-36.7-28.3-25.5 0-39.2 14.4-38.7 36.7H191c0-14.2 7.7-22.1 23.7-22.1 15 0 22.4 5.4 22.4 14.5 0 7.3-4.7 11.3-11.9 11.3h-24.4v13.9h24.4c7.1 0 11.9 3.6 11.9 12.2.2 9-7.1 13.8-22.8 13.8ZM303.8 30.1c-25.5 0-40.4 18.6-40.4 44V81c0 26.6 14.4 43.8 39.8 43.8 22.4 0 37.8-12.4 37.5-36.2h-14.6c0 14.2-7.3 21.7-22.9 21.7-16.7 0-25.3-11.1-25.3-29.7v-6.2c0-19.6 9.3-29.8 26.6-29.8 12.4 0 21.1 7.8 21.1 16.7 0 6.9-2.5 9.1-11.8 9.1h-39.3v13.8h41.8c15.8 0 23.8-6.9 23.8-22 0-18.8-14.2-32.1-36.3-32.1ZM390.4 24.3c16.6 0 28.5-6.2 27.4-24.1h-13.7c0 7.8-3.5 11.5-12.6 11.5-8.4 0-13.1-2.2-13.1-11.5h-13.5c-1.2 17.9 9 24.1 25.5 24.1ZM370.6 103.2h-2.9V31.9h-15v91.2h22.5l36.1-71.3h2.9v71.3h14.9V31.9h-22.4l-36.1 71.3Z"/></g><defs><clipPath id="clip0_21_2598"><path fill="#fff" d="M0 0h518v330H0z"/></clipPath></defs></svg>