<svg width="518" height="330" viewBox="0 0 518 330" fill="none" xmlns="http://www.w3.org/2000/svg">
<g clip-path="url(#clip0_21_2598)">
<path d="M0 328.2H14.6V251.7H76.3V237.1H0V328.2Z" fill="white"/>
<path d="M30.7 171H14.6V134.5H0V225.6H14.6V185.6H29.3L58.1 225.6H76.3V223.5L44.7 179.2V176.7L76.4 137.2V134.5H59.2L30.7 171Z" fill="white"/>
<path d="M234.9 154.4H237.8V225.6H252.8V134.5H230.3L194.2 205.8H191.3V134.5H176.3V225.6H198.8L234.9 154.4Z" fill="white"/>
<path d="M411.3 257H414.2V328.2H429.1V237.1H406.7L370.6 308.4H367.7V237.1H352.7V328.2H375.2L411.3 257Z" fill="white"/>
<path d="M499.5 257H502.4V328.2H517.3V237.1H494.9L458.8 308.4H455.9V237.1H440.9V328.2H463.3L499.5 257Z" fill="white"/>
<path d="M341 225.6V134.5H264.5V225.6H279.1V149.1H326.4V225.6H341Z" fill="white"/>
<path d="M429.1 134.5H352.7V149.1H383.6V225.6H398.2V149.1H429.1V134.5Z" fill="white"/>
<path d="M249.5 306V283V271C249.5 249.7 239.1 236.2 213.8 236.2C188.3 236.2 175 251.2 176.6 276H191.2C191.2 258.7 197.9 250.8 213.8 250.8C227.5 250.8 235 258.1 235 269.8V273.8L201.1 279.8C185.1 282.7 177 291.3 177 303.7C177 321.6 190.5 329.2 205.1 329.2C216.9 329.2 227.4 323.7 235.3 315.7H237.4C238.3 322.4 243.2 328.3 252.4 328.3H258.8V314H257.5C251.3 314 249.5 312 249.5 306ZM206.2 315.8C197.8 315.8 191.4 311.4 191.4 304.1C191.4 298.3 195.2 295.2 202.7 293.7L234.8 287.7V291C234.9 305.6 223 315.8 206.2 315.8Z" fill="white"/>
<path d="M477.4 132.8C451.9 132.8 437.5 149.8 437.5 177.3V182.2C437.5 209.7 451.9 226.7 477.4 226.7C502.8 226.7 517.3 209.7 517.3 182.2V177.3C517.3 149.7 502.7 132.8 477.4 132.8ZM502.7 181.8C502.7 200.8 493.9 212.1 477.3 212.1C460.5 212.1 451.9 200.8 451.9 181.8V177.6C451.9 158.6 460.5 147.3 477.3 147.3C493.9 147.3 502.7 158.6 502.7 177.6V181.8Z" fill="white"/>
<path d="M312.6 240.9H309.7V231.8H295.8V240.9H292.9C269.7 240.9 262.3 258.4 262.3 278.5V282.1C262.3 302.2 269.8 319.7 292.9 319.7H295.8V328.2H309.7V319.7H312.6C335.8 319.7 343.2 302.2 343.2 282.1V278.5C343.2 258.4 335.8 240.9 312.6 240.9ZM292.5 305.5C281.2 305.5 276.8 298.4 276.8 282.9V277.8C276.8 262.3 281.2 255.2 292.5 255.2H295.8V305.5H292.5ZM328.6 282.9C328.6 298.4 324.2 305.5 312.9 305.5H309.6V255.2H312.9C324.2 255.2 328.6 262.3 328.6 277.8V282.9Z" fill="white"/>
<path d="M132.1 134.5H88.1001V225.6H102.7V195.2H132.1C153.6 195.2 164.4 184.6 164.4 164.7C164.4 144.3 153.3 134.5 132.1 134.5ZM131.9 180.6H102.7V149H131.9C143.6 149 149.8 154.1 149.8 164.7C149.8 175.2 143.6 180.6 131.9 180.6Z" fill="white"/>
<path d="M132.1 237.1H88.1001V328.2H102.7V297.8H132.1C153.6 297.8 164.4 287.2 164.4 267.3C164.4 246.9 153.3 237.1 132.1 237.1ZM131.9 283.2H102.7V251.6H131.9C143.6 251.6 149.8 256.7 149.8 267.3C149.8 277.8 143.6 283.2 131.9 283.2Z" fill="white"/>
<path d="M39.7 68.6H36.6L17.5 31.9H0V123.1H14.6V59.8H17.5L31.3 85.2H45L58.9 59.8H61.8V123.1H76.4V31.9H58.9L39.7 68.6Z" fill="white"/>
<path d="M134.9 79.6H123L104.9 31.9H88.1001V34.6L112.7 93.9H129.2L126.2 101.5C124 107.1 122.2 108 116.4 108H104.7V122.9H116.9C130.2 122.9 136.4 118.4 140.8 108.3L169.8 34.4V31.7H153.4L134.9 79.6Z" fill="white"/>
<path d="M214.3 110.3C198.1 110.3 191.1 102.8 191.1 88.6H176.5C176 110.8 187.8 124.9 214.4 124.9C238.7 124.9 251.8 112.5 251.8 96.6C251.8 87.9 247.8 81.4 242.7 78.3V76C247.7 72.6 251.8 65.9 251.8 58.3C251.8 41.9 238.5 30 215.1 30C189.6 30 175.9 44.4 176.4 66.7H191C191 52.5 198.7 44.6 214.7 44.6C229.7 44.6 237.1 50 237.1 59.1C237.1 66.4 232.4 70.4 225.2 70.4H200.8V84.3H225.2C232.3 84.3 237.1 87.9 237.1 96.5C237.3 105.5 230 110.3 214.3 110.3Z" fill="white"/>
<path d="M303.8 30.1C278.3 30.1 263.4 48.7 263.4 74.1V81C263.4 107.6 277.8 124.8 303.2 124.8C325.6 124.8 341 112.4 340.7 88.6H326.1C326.1 102.8 318.8 110.3 303.2 110.3C286.5 110.3 277.9 99.2 277.9 80.6V74.4C277.9 54.8 287.2 44.6 304.5 44.6C316.9 44.6 325.6 52.4 325.6 61.3C325.6 68.2 323.1 70.4 313.8 70.4H274.5V84.2H316.3C332.1 84.2 340.1 77.3 340.1 62.2C340.1 43.4 325.9 30.1 303.8 30.1Z" fill="white"/>
<path d="M390.4 24.3C407 24.3 418.9 18.1 417.8 0.200012H404.1C404.1 8.00001 400.6 11.7 391.5 11.7C383.1 11.7 378.4 9.50001 378.4 0.200012H364.9C363.7 18.1 373.9 24.3 390.4 24.3Z" fill="white"/>
<path d="M370.6 103.2H367.7V31.9H352.7V123.1H375.2L411.3 51.8H414.2V123.1H429.1V31.9H406.7L370.6 103.2Z" fill="white"/>
</g>
<defs>
<clipPath id="clip0_21_2598">
<rect width="518" height="330" fill="white"/>
</clipPath>
</defs>
</svg>
