<svg width="518" height="330" viewBox="0 0 518 330" fill="none" xmlns="http://www.w3.org/2000/svg">
<g clip-path="url(#clip0_21_2669)">
<path d="M0 328.2H14.6V251.7H76.3V237.1H0V328.2Z" fill="white"/>
<path d="M30.7 171H14.6V134.5H0V225.6H14.6V185.6H29.3L58.1 225.6H76.3V223.5L44.7 179.2V176.7L76.4 137.2V134.5H59.2L30.7 171Z" fill="white"/>
<path d="M234.9 154.4H237.8V225.6H252.8V134.5H230.3L194.2 205.8H191.3V134.5H176.3V225.6H198.8L234.9 154.4Z" fill="white"/>
<path d="M411.3 257H414.2V328.2H429.1V237.1H406.7L370.6 308.4H367.7V237.1H352.7V328.2H375.2L411.3 257Z" fill="white"/>
<path d="M499.5 257H502.4V328.2H517.3V237.1H494.9L458.8 308.4H455.9V237.1H440.9V328.2H463.3L499.5 257Z" fill="white"/>
<path d="M249.5 306V283V271C249.5 249.7 239.1 236.2 213.8 236.2C188.3 236.2 175 251.2 176.6 276H191.2C191.2 258.7 197.9 250.8 213.8 250.8C227.5 250.8 235 258.1 235 269.8V273.8L201.1 279.8C185.1 282.7 177 291.3 177 303.7C177 321.6 190.5 329.2 205.1 329.2C216.9 329.2 227.4 323.7 235.3 315.7H237.4C238.3 322.4 243.2 328.3 252.4 328.3H258.8V314H257.5C251.3 314 249.5 312 249.5 306ZM206.2 315.8C197.8 315.8 191.4 311.4 191.4 304.1C191.4 298.3 195.2 295.2 202.7 293.7L234.8 287.7V291C234.9 305.6 223 315.8 206.2 315.8Z" fill="white"/>
<path d="M312.6 240.9H309.7V231.8H295.8V240.9H292.9C269.7 240.9 262.3 258.4 262.3 278.5V282.1C262.3 302.2 269.8 319.7 292.9 319.7H295.8V328.2H309.7V319.7H312.6C335.8 319.7 343.2 302.2 343.2 282.1V278.5C343.2 258.4 335.8 240.9 312.6 240.9ZM292.5 305.5C281.2 305.5 276.8 298.4 276.8 282.9V277.8C276.8 262.3 281.2 255.2 292.5 255.2H295.8V305.5H292.5ZM328.6 282.9C328.6 298.4 324.2 305.5 312.9 305.5H309.6V255.2H312.9C324.2 255.2 328.6 262.3 328.6 277.8V282.9Z" fill="white"/>
<path d="M132.1 134.5H88.1V225.6H102.7V195.2H132.1C153.6 195.2 164.4 184.6 164.4 164.7C164.4 144.3 153.3 134.5 132.1 134.5ZM131.9 180.6H102.7V149H131.9C143.6 149 149.8 154.1 149.8 164.7C149.8 175.2 143.6 180.6 131.9 180.6Z" fill="white"/>
<path d="M132.1 237.1H88.1V328.2H102.7V297.8H132.1C153.6 297.8 164.4 287.2 164.4 267.3C164.4 246.9 153.3 237.1 132.1 237.1ZM131.9 283.2H102.7V251.6H131.9C143.6 251.6 149.8 256.7 149.8 267.3C149.8 277.8 143.6 283.2 131.9 283.2Z" fill="white"/>
<path d="M39.7 68.6H36.6L17.5 31.9H0V123.1H14.6V59.8H17.5L31.3 85.2H45L58.9 59.8H61.8V123.1H76.4V31.9H58.9L39.7 68.6Z" fill="white"/>
<path d="M134.9 79.6H123L104.9 31.9H88.1V34.6L112.7 93.8999H129.2L126.2 101.5C124 107.1 122.2 108 116.4 108H104.7V122.9H116.9C130.2 122.9 136.4 118.4 140.8 108.3L169.8 34.4V31.7H153.4L134.9 79.6Z" fill="white"/>
<path d="M214.3 110.3C198.1 110.3 191.1 102.8 191.1 88.5999H176.5C176 110.8 187.8 124.9 214.4 124.9C238.7 124.9 251.8 112.5 251.8 96.5999C251.8 87.8999 247.8 81.3999 242.7 78.2999V75.9999C247.7 72.5999 251.8 65.8999 251.8 58.2999C251.8 41.8999 238.5 29.9999 215.1 29.9999C189.6 29.9999 175.9 44.3999 176.4 66.6999H191C191 52.4999 198.7 44.5999 214.7 44.5999C229.7 44.5999 237.1 49.9999 237.1 59.0999C237.1 66.3999 232.4 70.3999 225.2 70.3999H200.8V84.2999H225.2C232.3 84.2999 237.1 87.8999 237.1 96.4999C237.3 105.5 230 110.3 214.3 110.3Z" fill="white"/>
<path d="M303.8 30.0999C278.3 30.0999 263.4 48.6999 263.4 74.0999V80.9999C263.4 107.6 277.8 124.8 303.2 124.8C325.6 124.8 341 112.4 340.7 88.6H326.1C326.1 102.8 318.8 110.3 303.2 110.3C286.5 110.3 277.9 99.1999 277.9 80.5999V74.3999C277.9 54.7999 287.2 44.5999 304.5 44.5999C316.9 44.5999 325.6 52.4 325.6 61.2999C325.6 68.1999 323.1 70.3999 313.8 70.3999H274.5V84.1999H316.3C332.1 84.1999 340.1 77.2999 340.1 62.1999C340.1 43.3999 325.9 30.0999 303.8 30.0999Z" fill="white"/>
<path d="M390.4 24.3C407 24.3 418.9 18.1 417.8 0.199951H404.1C404.1 7.99995 400.6 11.7 391.5 11.7C383.1 11.7 378.4 9.49995 378.4 0.199951H364.9C363.7 18 373.9 24.3 390.4 24.3Z" fill="white"/>
<path d="M370.3 68.6H367.7V31.9H352.7V85.1H372.3L411.6 48.4H414.2V85.1H429.1V31.9H409.5L370.3 68.6Z" fill="white"/>
<path d="M341 225.6V172.5H264.5V225.6H279.1V187H326.4V225.6H341Z" fill="white"/>
<path d="M411.9 199C411.9 216.9 422.5 225.7 441.1 225.7H462.5C481.1 225.7 491.7 216.9 491.7 199C491.7 181.1 481.1 172.5 462.5 172.5H441.1C422.5 172.5 411.9 181 411.9 199ZM477.1 199C477.1 207 473.4 211.4 461.4 211.4H442.2C430.1 211.4 426.5 207 426.5 199C426.5 191 430.2 186.8 442.2 186.8H461.4C473.5 186.7 477.1 190.9 477.1 199Z" fill="white"/>
<path d="M352.7 172.5V187H370.9V225.6H385.5V187H403.7V172.5H352.7Z" fill="white"/>
<path d="M514.3 34.9V222.6H503.3V161V158H500.3H267.5V137.5H352.7H355.7V134.5V99.6H440.9H443.9V96.6V34.9H514.3ZM517.3 31.9H440.9V96.5H352.7V134.4H264.5V161H500.3V225.6H517.3V31.9Z" fill="white"/>
</g>
<defs>
<clipPath id="clip0_21_2669">
<rect width="518" height="330" fill="white"/>
</clipPath>
</defs>
</svg>
