<svg width="519" height="330" viewBox="0 0 519 330" fill="none" xmlns="http://www.w3.org/2000/svg">
<g clip-path="url(#clip0_21_2742)">
<path d="M411.3 257H414.2V328.2H429.1V237.1H406.7L370.6 308.4H367.7V237.1H352.7V328.2H375.2L411.3 257Z" fill="white"/>
<path d="M499.5 257H502.4V328.2H517.3V237.1H494.9L458.8 308.4H455.9V237.1H440.9V328.2H463.3L499.5 257Z" fill="white"/>
<path d="M249.5 306V283V271C249.5 249.7 239.1 236.2 213.8 236.2C188.3 236.2 175 251.2 176.6 276H191.2C191.2 258.7 197.9 250.8 213.8 250.8C227.5 250.8 235 258.1 235 269.8V273.8L201.1 279.8C185.1 282.7 177 291.3 177 303.7C177 321.6 190.5 329.2 205.1 329.2C216.9 329.2 227.4 323.7 235.3 315.7H237.4C238.3 322.4 243.2 328.3 252.4 328.3H258.8V314H257.5C251.3 314 249.5 312 249.5 306ZM206.2 315.8C197.8 315.8 191.4 311.4 191.4 304.1C191.4 298.3 195.2 295.2 202.7 293.7L234.8 287.7V291C234.9 305.6 223 315.8 206.2 315.8Z" fill="white"/>
<path d="M312.6 240.9H309.7V231.8H295.8V240.9H292.9C269.7 240.9 262.3 258.4 262.3 278.5V282.1C262.3 302.2 269.8 319.7 292.9 319.7H295.8V328.2H309.7V319.7H312.6C335.8 319.7 343.2 302.2 343.2 282.1V278.5C343.2 258.4 335.8 240.9 312.6 240.9ZM292.5 305.5C281.2 305.5 276.8 298.4 276.8 282.9V277.8C276.8 262.3 281.2 255.2 292.5 255.2H295.8V305.5H292.5ZM328.6 282.9C328.6 298.4 324.2 305.5 312.9 305.5H309.6V255.2H312.9C324.2 255.2 328.6 262.3 328.6 277.8V282.9Z" fill="white"/>
<path d="M39.7 68.6H36.6L17.5 31.9H0V123.1H14.6V59.8H17.5L31.3 85.2H45L58.9 59.8H61.8V123.1H76.4V31.9H58.9L39.7 68.6Z" fill="white"/>
<path d="M134.9 79.6H123L104.9 31.9H88.1V34.6L112.7 93.8999H129.2L126.2 101.5C124 107.1 122.2 108 116.4 108H104.7V122.9H116.9C130.2 122.9 136.4 118.4 140.8 108.3L169.8 34.4V31.7H153.4L134.9 79.6Z" fill="white"/>
<path d="M214.3 110.3C198.1 110.3 191.1 102.8 191.1 88.5999H176.5C176 110.8 187.8 124.9 214.4 124.9C238.7 124.9 251.8 112.5 251.8 96.5999C251.8 87.8999 247.8 81.3999 242.7 78.2999V75.9999C247.7 72.5999 251.8 65.8999 251.8 58.2999C251.8 41.8999 238.5 29.9999 215.1 29.9999C189.6 29.9999 175.9 44.3999 176.4 66.6999H191C191 52.4999 198.7 44.5999 214.7 44.5999C229.7 44.5999 237.1 49.9999 237.1 59.0999C237.1 66.3999 232.4 70.3999 225.2 70.3999H200.8V84.2999H225.2C232.3 84.2999 237.1 87.8999 237.1 96.4999C237.3 105.5 230 110.3 214.3 110.3Z" fill="white"/>
<path d="M303.8 30.0999C278.3 30.0999 263.4 48.6999 263.4 74.0999V80.9999C263.4 107.6 277.8 124.8 303.2 124.8C325.6 124.8 341 112.4 340.7 88.6H326.1C326.1 102.8 318.8 110.3 303.2 110.3C286.5 110.3 277.9 99.1999 277.9 80.5999V74.3999C277.9 54.7999 287.2 44.5999 304.5 44.5999C316.9 44.5999 325.6 52.4 325.6 61.2999C325.6 68.1999 323.1 70.3999 313.8 70.3999H274.5V84.1999H316.3C332.1 84.1999 340.1 77.2999 340.1 62.1999C340.1 43.3999 325.9 30.0999 303.8 30.0999Z" fill="white"/>
<path d="M390.4 24.3C407 24.3 418.9 18.1 417.8 0.199951H404.1C404.1 7.99995 400.6 11.7 391.5 11.7C383.1 11.7 378.4 9.49995 378.4 0.199951H364.9C363.7 18 373.9 24.3 390.4 24.3Z" fill="white"/>
<path d="M370.3 68.6H367.7V31.9H352.7V85.1H372.3L411.6 48.4H414.2V85.1H429.1V31.9H409.5L370.3 68.6Z" fill="white"/>
<path d="M341 225.6V172.5H264.5V225.6H279.1V187H326.4V225.6H341Z" fill="white"/>
<path d="M439.1 199C439.1 216.9 449.7 225.7 468.3 225.7H489.7C508.3 225.7 518.9 216.9 518.9 199C518.9 181.1 508.3 172.5 489.7 172.5H468.3C449.7 172.5 439.1 181 439.1 199ZM504.3 199C504.3 207 500.6 211.4 488.6 211.4H469.4C457.3 211.4 453.7 207 453.7 199C453.7 191 457.4 186.8 469.4 186.8H488.6C500.6 186.7 504.3 190.9 504.3 199Z" fill="white"/>
<path d="M429.1 172.5H352.7V187H383.6V225.6H398.2V187H429.1V172.5Z" fill="white"/>
<path d="M50.5 328.2H65.1V251.7H101.5V237.1H50.5V328.2Z" fill="white"/>
<path d="M113.2 237.1V328.2H127.8V298.5H137.8C155.6 298.5 164.4 291.2 164.4 267.8C164.4 243.8 155.3 237.1 137.8 237.1H113.2ZM127.8 284V251.6H137.6C149.2 251.6 149.8 257.2 149.8 267.8C149.8 278.2 149.3 284 137.6 284H127.8Z" fill="white"/>
<path d="M141.5 134.5H88.1V187.7H103.1V175.3H141.5C157 175.3 164.5 168.2 164.5 154.8C164.6 141.3 157.6 134.5 141.5 134.5ZM140.1 161H103.2V148.8H140.1C147 148.8 150 149.9 150 154.8C149.9 159.9 147 161 140.1 161Z" fill="white"/>
<path d="M193.9 171.2H191.3V134.5H176.3V187.7H195.9L235.2 151H237.8V187.7H252.8V134.5H233.2L193.9 171.2Z" fill="white"/>
<path d="M76.5 136.7V134.5H54.9L30.6 153.2H14.9V134.5H0V187.7H14.9V167.8H29.6L54.9 187.7H76.5V185.5L47.1 162.2V158.6L76.5 136.7Z" fill="white"/>
<path d="M514.3 34.8999V158H267.5V137.5H352.7H355.7V134.5V99.5999H440.9H443.9V96.5999V34.8999H514.3ZM517.3 31.8999H440.9V96.4999H352.7V134.4H264.5V161H517.3V31.8999Z" fill="white"/>
<path d="M249.8 202.1V222.6H36.8H33.8V225.6V325.2H3V202.1H249.8ZM252.8 199.1H0V328.2H36.8V225.6H252.8V199.1Z" fill="white"/>
</g>
<defs>
<clipPath id="clip0_21_2742">
<rect width="519" height="330" fill="white"/>
</clipPath>
</defs>
</svg>
