<svg width="519" height="329" viewBox="0 0 519 329" fill="none" xmlns="http://www.w3.org/2000/svg">
<g clip-path="url(#clip0_21_2816)">
<path d="M30.7 171H14.6V134.5H0V225.6H14.6V185.6H29.3L58.1 225.6H76.3V223.5L44.7 179.2V176.7L76.4 137.2V134.5H59.2L30.7 171Z" fill="white"/>
<path d="M499.5 257H502.4V328.2H517.3V237.1H494.9L458.8 308.4H455.9V237.1H440.9V328.2H463.3L499.5 257Z" fill="white"/>
<path d="M39.7 68.6H36.6L17.5 31.9H0V123.1H14.6V59.8H17.5L31.3 85.2H45L58.9 59.8H61.8V123.1H76.4V31.9H58.9L39.7 68.6Z" fill="white"/>
<path d="M128.8 31.9L121 79.4H111.2L101.4 31.9H87.4V34.6L100.1 93.9H118.6L117.7 99.4C116.8 104.9 114.2 108 107.5 108H97.9V123.1H110.1C122.5 123.1 128.5 116.2 130.5 105.3L143.2 34.7V32H128.8V31.9Z" fill="white"/>
<path d="M427.9 24.3C444.5 24.3 456.4 18.1 455.3 0.199951H441.6C441.6 7.99995 438.1 11.7 429 11.7C420.6 11.7 415.9 9.49995 415.9 0.199951H402.4C401.3 18.1 411.5 24.3 427.9 24.3Z" fill="white"/>
<path d="M408.2 103.2H405.3V31.9H390.3V123.1H412.7L448.8 51.8H451.8V123.1H466.7V31.9H444.3L408.2 103.2Z" fill="white"/>
<path d="M315.8 58.6V55.5C315.8 40.2 307.2 30.2 290.3 30.2C272.5 30.2 264.5 39.7 264.5 58.6V66.4H279.5V60.4C279.5 49.7 281.9 44.8 290.4 44.8C298.6 44.8 301 50.1 301 57V58.6C301 66.2 299 70.6 293.4 70.6H285V84.6H293.4C299 84.6 301 88.5999 301 95.8999V97.8999C301 106.1 297.5 110.5 290.4 110.5C283.1 110.5 279.5 107.6 279.5 94.8999V88.8999H264.5V96.7C264.5 114.9 271.8 125.1 290.2 125.1C308.4 125.1 315.9 113.8 315.9 98.5V96.1C315.9 87.6 313.8 82.7 309.5 79.5V75.6C313.3 72.8 315.8 67.6 315.8 58.6Z" fill="white"/>
<path d="M353.6 84.6C371.6 84.6 378.2 74.6 378.2 62.4V56C378.2 40.5 370.4 30.2 352.5 30.2C334.6 30.2 326.8 40 326.8 58.6V96.6C326.8 115.2 334.6 125 352.5 125C370.4 125 378.2 115.4 378.2 96.6V88.8H363.3V94.8C363.3 106.8 360.2 110.4 352.6 110.4C345 110.4 341.9 106.8 341.9 94.8V84.6H353.6ZM352.3 44.8C359.9 44.8 363 48.8 363 57.9V60.3C363 68.3 359.5 70.7 352.8 70.7H341.7V60.5C341.8 48.4 344.7 44.8 352.3 44.8Z" fill="white"/>
<path d="M439 198.7C439 216.6 449.6 225.4 468.2 225.4H489.6C508.2 225.4 518.8 216.6 518.8 198.7C518.8 180.8 508.2 172.2 489.6 172.2H468.2C449.6 172.2 439 180.8 439 198.7ZM504.3 198.7C504.3 206.7 500.6 211.1 488.6 211.1H469.4C457.3 211.1 453.7 206.7 453.7 198.7C453.7 190.7 457.4 186.5 469.4 186.5H488.5C500.6 186.5 504.3 190.7 504.3 198.7Z" fill="white"/>
<path d="M378.2 172.2V186.8H396.4V225.4H411V186.8H429.1V172.2H378.2Z" fill="white"/>
<path d="M88.2 134.5V225.6H102.8V196H112.8C130.6 196 139.4 188.7 139.4 165.3C139.4 141.3 130.3 134.6 112.8 134.6H88.2V134.5ZM102.7 181.4V149H112.5C124.1 149 124.7 154.6 124.7 165.2C124.7 175.6 124.2 181.4 112.5 181.4H102.7Z" fill="white"/>
<path d="M168.6 171.2H166V134.5H151.1V187.7H170.6L209.9 151H212.5V187.7H227.5V134.5H207.9L168.6 171.2Z" fill="white"/>
<path d="M366.4 225.6V172.5H290V225.6H304.6V187H351.8V225.6H366.4Z" fill="white"/>
<path d="M370.3 311.8H367.7V275.1H352.7V328.2H372.3L411.6 291.5H414.2V328.2H429.1V275.1H409.5L370.3 311.8Z" fill="white"/>
<path d="M313.5 276.9H309.7V271.4H296.1V276.9H292.3C273 276.9 263.2 283.1 263.2 299.8C263.2 316.5 273 322.9 292.3 322.9H296.1V328.2H309.7V323H313.5C332.8 323 342.6 316.6 342.6 299.9C342.6 283.1 332.8 276.9 313.5 276.9ZM293.3 310.2C282.2 310.2 277.3 307.8 277.3 299.8C277.3 291.8 282.2 289.6 293.3 289.6H296V310.2H293.3ZM312.4 310.2H309.7V289.6H312.4C323.5 289.6 328.4 291.8 328.4 299.8C328.4 307.9 323.5 310.2 312.4 310.2Z" fill="white"/>
<path d="M53.7 237.1V328.2H68.3V298.5H78.3C96.1 298.5 104.9 291.2 104.9 267.8C104.9 243.8 95.8 237.1 78.3 237.1H53.7ZM68.2 284V251.6H78C89.6 251.6 90.2 257.2 90.2 267.8C90.2 278.2 89.7 284 78 284H68.2Z" fill="white"/>
<path d="M168.1 313.8C164.1 313.8 163 312.2 163 307.4V283.6V262C163 246.4 155.7 236.2 138.4 236.2C120.4 236.2 112.7 246.4 112.7 264.6V272.4H127.6V265.9C127.6 256.3 128.9 250.8 137.8 250.8C146.7 250.8 148 256.3 148 265.9V275.5L131.4 280C119.4 283.3 111.9 291.8 111.9 306.2C111.9 320.9 120.8 328.8 131.9 328.8C139.9 328.8 146.6 325.1 150.3 319.3H152.3C153.7 325.8 158.5 328.2 163.9 328.2H169.4V313.8H168.1ZM148.1 297.8C148.1 309.3 142.5 314.7 134.8 314.7C129.7 314.7 126.4 311.2 126.4 305.1C126.4 298.6 129.3 295.1 136.4 293.1L148 289.8V297.8H148.1Z" fill="white"/>
<path d="M0 328.2H14.6V251.7H45.5V237.1H0V328.2Z" fill="white"/>
<path d="M514.3 34.8999V158H279.6H276.6V161V237.1V240.1H279.6H426.2V260.6H252.8H249.8V263.6V325.2H180V237.1V225.7V222.7H177H154.1V202.2H239.5H242.5V199.2V123.1V120.1H239.5H154.1V34.8999H249.8V134.5V137.5H252.8H279.6H480.3H483.3V134.5V34.8999H514.3ZM517.3 31.8999H480.3V134.5H279.6H252.8V31.8999H151.1V123H239.5V199.1H151.1V225.6H177V237V328.1H252.8V263.5H429.2V237H279.6V161H517.3V31.8999Z" fill="white"/>
</g>
<defs>
<clipPath id="clip0_21_2816">
<rect width="519" height="329" fill="white"/>
</clipPath>
</defs>
</svg>
