<svg width="520" height="329" viewBox="0 0 520 329" fill="none" xmlns="http://www.w3.org/2000/svg">
<g clip-path="url(#clip0_21_1503)">
<path d="M370.3 311.8H367.7V275.1H352.7V328.2H372.3L411.6 291.5H414.2V328.2H429.1V275.1H409.5L370.3 311.8Z" fill="white"/>
<path d="M458.5 311.8H455.9V275.1H440.9V328.2H460.5L499.7 291.5H502.4V328.2H517.3V275.1H497.7L458.5 311.8Z" fill="white"/>
<path d="M120.3 31.9L102.6 61.1H99.3L81.6 31.9H62.7V85.1H77.3V54.6H80.1L94.6 77H107.3L121.7 54.6H124.6V85.1H139.1V31.9H120.3Z" fill="white"/>
<path d="M214.4 31.9L195.8 54.7H190.1L168.5 31.9H150.4V34.1L184.2 68.7C182.1 70.5 180.1 70.8 175.5 70.8H162.7V85.1H174.4C185.4 85.1 191.9 82 198.2 74.5L232.2 34.3V31.9H214.4Z" fill="white"/>
<path d="M440.1 24.3C456.7 24.3 468.6 18.1 467.5 0.199951H453.8C453.8 7.99995 450.3 11.7 441.2 11.7C432.8 11.7 428.1 9.49995 428.1 0.199951H414.6C413.5 18.1 423.7 24.3 440.1 24.3Z" fill="white"/>
<path d="M420.3 103.2H417.4V31.9H402.5V123.1H424.9L461 51.8H463.9V123.1H478.9V31.9H456.5L420.3 103.2Z" fill="white"/>
<path d="M328.2 58.3999V55.2999C328.2 39.9999 319.6 29.9999 302.7 29.9999C284.9 29.9999 276.9 39.4999 276.9 58.3999V66.1999H291.8V60.1999C291.8 49.4999 294.2 44.5999 302.7 44.5999C310.9 44.5999 313.3 49.8999 313.3 56.7999V58.3999C313.3 65.9999 311.3 70.3999 305.7 70.3999H297.3V84.3999H305.7C311.3 84.3999 313.3 88.3999 313.3 95.6999V97.6999C313.3 105.9 309.8 110.3 302.7 110.3C295.4 110.3 291.8 107.4 291.8 94.6999V88.6999H276.9V96.4999C276.9 114.7 284.2 124.9 302.6 124.9C320.8 124.9 328.3 113.6 328.3 98.2999V95.8999C328.3 87.3999 326.2 82.4999 321.9 79.2999V75.3999C325.7 72.4999 328.2 67.3999 328.2 58.3999Z" fill="white"/>
<path d="M365.9 84.3999C383.9 84.3999 390.5 74.3999 390.5 62.1999V55.7999C390.5 40.2999 382.7 29.9999 364.8 29.9999C346.9 29.9999 339.1 39.7999 339.1 58.3999V96.3999C339.1 115 346.9 124.8 364.8 124.8C382.7 124.8 390.5 115.2 390.5 96.3999V88.5999H375.6V94.5999C375.6 106.6 372.5 110.2 364.9 110.2C357.3 110.2 354.2 106.6 354.2 94.5999V84.3999H365.9ZM364.7 44.5999C372.3 44.5999 375.4 48.5999 375.4 57.6999V60.0999C375.4 68.0999 371.9 70.4999 365.2 70.4999H354.1V60.2999C354.1 48.1999 357 44.5999 364.7 44.5999Z" fill="white"/>
<path d="M116.1 172.5H62.7V225.7H77.7V213.3H116.1C131.6 213.3 139.1 206.2 139.1 192.8C139.1 179.2 132.2 172.5 116.1 172.5ZM114.6 199H77.7V186.8H114.6C121.5 186.8 124.5 187.9 124.5 192.8C124.5 197.9 121.6 199 114.6 199Z" fill="white"/>
<path d="M116.1 237.1H62.7V290.3H77.7V277.9H116.1C131.6 277.9 139.1 270.8 139.1 257.4C139.1 243.9 132.2 237.1 116.1 237.1ZM114.6 263.6H77.7V251.4H114.6C121.5 251.4 124.5 252.5 124.5 257.4C124.5 262.5 121.6 263.6 114.6 263.6Z" fill="white"/>
<path d="M168.5 209.1H165.9V172.5H150.9V225.6H170.5L209.7 188.9H212.4V225.6H227.3V172.5H207.7L168.5 209.1Z" fill="white"/>
<path d="M315.5 225.6V172.5H239.1V225.6H253.7V187H300.9V225.6H315.5Z" fill="white"/>
<path d="M439.5 199C439.5 216.9 450.1 225.7 468.7 225.7H490.1C508.7 225.7 519.3 216.9 519.3 199C519.3 181.1 508.7 172.5 490.1 172.5H468.7C450.1 172.5 439.5 181 439.5 199ZM504.7 199C504.7 207 501 211.4 489 211.4H469.8C457.7 211.4 454.1 207 454.1 199C454.1 191 457.8 186.8 469.8 186.8H489C501 186.7 504.7 190.9 504.7 199Z" fill="white"/>
<path d="M51 137.1V134.5H35.4L23.6 171.1H14.6V134.5H0V171.1V185.7V225.6H14.6V185.7H23.5L35.4 225.6H51V223.1L37.6 179.8V176.6L51 137.1Z" fill="white"/>
<path d="M313.5 276.9H309.7V271.4H296.1V276.9H292.3C273 276.9 263.2 283.1 263.2 299.8C263.2 316.5 273 322.9 292.3 322.9H296.1V328.2H309.7V323H313.5C332.8 323 342.6 316.6 342.6 299.9C342.6 283.1 332.8 276.9 313.5 276.9ZM293.3 310.2C282.2 310.2 277.3 307.8 277.3 299.8C277.3 291.8 282.2 289.6 293.3 289.6H296V310.2H293.3ZM312.4 310.2H309.7V289.6H312.4C323.5 289.6 328.4 291.8 328.4 299.8C328.4 307.9 323.5 310.2 312.4 310.2Z" fill="white"/>
<path d="M0 328.2H14.6V251.7H50.9V237.1H0V328.2Z" fill="white"/>
<path d="M207 313.8C203 313.8 201.9 312.2 201.9 307.4V283.6V262C201.9 246.4 194.6 236.2 177.3 236.2C159.3 236.2 151.6 246.4 151.6 264.6V272.4H166.5V265.9C166.5 256.3 167.8 250.8 176.7 250.8C185.6 250.8 186.9 256.3 186.9 265.9V275.5L170.3 280C158.3 283.3 150.8 291.8 150.8 306.2C150.8 320.9 159.7 328.8 170.8 328.8C178.8 328.8 185.5 325.1 189.2 319.3H191.2C192.6 325.8 197.4 328.2 202.8 328.2H208.3V313.8H207ZM186.9 297.8C186.9 309.3 181.3 314.7 173.6 314.7C168.5 314.7 165.2 311.2 165.2 305.1C165.2 298.6 168.1 295.1 175.2 293.1L186.8 289.8V297.8H186.9Z" fill="white"/>
<path d="M378.2 172.5V187H396.4V225.6H411V187H429.1V172.5H378.2Z" fill="white"/>
<path d="M136.1 304.7V325.2H65.7V304.7H136.1ZM139.1 301.7H62.7V328.2H139.1V301.7Z" fill="white"/>
<path d="M514.4 34.8999L514.3 158H368H365V161V237.1V240.1H368H514.4V260.6H252.8H249.8V263.6V325.2H218.3V240.1H326.7H329.7V237.1V161V158H326.7H65.7V123.1V120.1H62.7H3V34.8999H45.9V96.4999V99.4999H48.9H239.1H242.1V96.4999V34.8999H262V134.5V137.5H265H491.4H494.4V134.5V34.8999H514.4ZM517.4 31.8999H491.5V134.5H265.1V31.8999H239.2V96.4999H48.9V31.8999H0V123H62.8V161H326.7V237.1H215.3V328.2H252.8V263.6H517.4V237.1H368V161H517.4V31.8999Z" fill="white"/>
</g>
<defs>
<clipPath id="clip0_21_1503">
<rect width="520" height="329" fill="white"/>
</clipPath>
</defs>
</svg>
