<svg width="519" height="330" viewBox="0 0 519 330" fill="none" xmlns="http://www.w3.org/2000/svg">
<g clip-path="url(#clip0_21_1579)">
<path d="M412.3 257H415.2V328.2H430.1V237.1H407.7L371.6 308.4H368.7V237.1H353.7V328.2H376.2L412.3 257Z" fill="white"/>
<path d="M500.5 257H503.4V328.2H518.3V237.1H495.9L459.8 308.4H456.9V237.1H441.9V328.2H464.3L500.5 257Z" fill="white"/>
<path d="M199.7 306V283V271C199.7 249.7 189.3 236.2 164 236.2C138.5 236.2 125.2 251.2 126.8 276H141.4C141.4 258.7 148.1 250.8 164 250.8C177.7 250.8 185.2 258.1 185.2 269.8V273.8L151.3 279.8C135.3 282.7 127.2 291.3 127.2 303.7C127.2 321.6 140.7 329.2 155.3 329.2C167.1 329.2 177.6 323.7 185.5 315.7H187.6C188.5 322.4 193.4 328.3 202.6 328.3H209V314H207.5C201.5 314 199.7 312 199.7 306ZM156.5 315.8C148.1 315.8 141.7 311.4 141.7 304.1C141.7 298.3 145.5 295.2 153 293.7L185.1 287.7V291C185.1 305.6 173.2 315.8 156.5 315.8Z" fill="white"/>
<path d="M58.5 31.9002L40.8 61.1002H37.5L19.8 31.9002H0.900024V85.1002H15.5V54.6002H18.3L32.8 77.0002H45.5L60 54.6002H62.8V85.1002H77.4V31.9002H58.5Z" fill="white"/>
<path d="M151.2 31.9002L132.6 54.7002H126.9L105.3 31.9002H87.2001V34.1002L121 68.7002C118.9 70.5002 116.9 70.8002 112.3 70.8002H99.5001V85.1002H111.2C122.2 85.1002 128.7 82.0002 135 74.5002L169 34.3002V31.9002H151.2Z" fill="white"/>
<path d="M479.5 24.3002C496.1 24.3002 508 18.1002 506.9 0.200195H493.2C493.2 8.0002 489.7 11.7002 480.6 11.7002C472.2 11.7002 467.5 9.5002 467.5 0.200195H454C452.9 18.1002 463.1 24.3002 479.5 24.3002Z" fill="white"/>
<path d="M459.8 103.2H456.9V31.9002H441.9V123.1H464.3L500.5 51.8002H503.4V123.1H518.3V31.9002H495.9L459.8 103.2Z" fill="white"/>
<path d="M367.5 58.6002V55.5002C367.5 40.2002 358.9 30.2002 342 30.2002C324.2 30.2002 316.2 39.7002 316.2 58.6002V66.4002H331.1V60.4002C331.1 49.7002 333.5 44.8002 342 44.8002C350.2 44.8002 352.6 50.1002 352.6 57.0002V58.6002C352.6 66.2002 350.6 70.6002 345 70.6002H336.5V84.6002H344.9C350.5 84.6002 352.5 88.6002 352.5 95.9002V97.9002C352.5 106.1 349 110.5 341.9 110.5C334.6 110.5 331 107.6 331 94.9002V88.9002H316.1V96.7002C316.1 114.9 323.4 125.1 341.8 125.1C360 125.1 367.5 113.8 367.5 98.5002V96.1002C367.5 87.6002 365.4 82.7002 361.1 79.5002V75.6002C364.9 72.8002 367.5 67.6002 367.5 58.6002Z" fill="white"/>
<path d="M405.2 84.6002C423.2 84.6002 429.8 74.6002 429.8 62.4002V56.0002C429.8 40.5002 422 30.2002 404.1 30.2002C386.2 30.2002 378.4 40.0002 378.4 58.6002V96.6002C378.4 115.2 386.2 125 404.1 125C422 125 429.8 115.4 429.8 96.6002V88.8002H414.9V94.8002C414.9 106.8 411.8 110.4 404.2 110.4C396.6 110.4 393.5 106.8 393.5 94.8002V84.6002H405.2ZM403.9 44.8002C411.5 44.8002 414.6 48.8002 414.6 57.9002V60.3002C414.6 68.3002 411.1 70.7002 404.4 70.7002H393.3V60.5002C393.4 48.4002 396.3 44.8002 403.9 44.8002Z" fill="white"/>
<path d="M52 137.1V134.5H36.4L24.6 171.1H15.6V134.5H1V171.1V185.7V225.6H15.6V185.7H24.5L36.4 225.6H52V223.1L38.6 179.8V176.6L52 137.1Z" fill="white"/>
<path d="M63.6 134.5V225.6H78.2V196H88.2C106 196 114.8 188.7 114.8 165.3C114.8 141.3 105.7 134.6 88.2 134.6H63.6V134.5ZM78.1 181.4V149H87.9C99.5 149 100.1 154.6 100.1 165.2C100.1 175.6 99.6 181.4 87.9 181.4H78.1Z" fill="white"/>
<path d="M1 328.2H15.6V251.7H51.9V237.1H1V328.2Z" fill="white"/>
<path d="M63.7001 237.1V328.2H78.3001V298.5H88.3001C106.1 298.5 114.9 291.2 114.9 267.8C114.9 243.8 105.8 237.1 88.3001 237.1H63.7001ZM78.2001 284V251.6H88.0001C99.6001 251.6 100.2 257.2 100.2 267.8C100.2 278.2 99.7001 284 88.0001 284H78.2001Z" fill="white"/>
<path d="M314.5 276.9H310.7V271.4H297.1V276.9H293.3C274 276.9 264.2 283.1 264.2 299.8C264.2 316.5 274 322.9 293.3 322.9H297.1V328.2H310.7V323H314.5C333.8 323 343.6 316.6 343.6 299.9C343.6 283.1 333.8 276.9 314.5 276.9ZM294.3 310.2C283.2 310.2 278.3 307.8 278.3 299.8C278.3 291.8 283.2 289.6 294.3 289.6H297V310.2H294.3ZM313.4 310.2H310.7V289.6H313.4C324.5 289.6 329.4 291.8 329.4 299.8C329.4 307.9 324.5 310.2 313.4 310.2Z" fill="white"/>
<path d="M265.7 187.7V134.5H214.8V187.7H229.4V149.1H251.1V187.7H265.7Z" fill="white"/>
<path d="M144.2 171.2H141.6V134.5H126.6V187.7H146.2L185.4 151H188.1V187.7H203V134.5H183.4L144.2 171.2Z" fill="white"/>
<path d="M492.4 132.8C474.6 132.8 466.7 142.6 466.7 161.2V199.2C466.7 217.8 474.5 227.6 492.4 227.6C510.3 227.6 518.1 217.8 518.1 199.2V161.2C518.1 142.6 510.3 132.8 492.4 132.8ZM503.2 197.4C503.2 209.4 500.1 213 492.5 213C484.9 213 481.8 209.4 481.8 197.4V163C481.8 151 484.9 147.4 492.5 147.4C500.1 147.4 503.2 151 503.2 163V197.4Z" fill="white"/>
<path d="M404.1 134.5V149.1H416.4H422.2V225.6H436.8V149.1H442.7H455V134.5H404.1Z" fill="white"/>
<path d="M301 34.8999V134.5V137.5H304H390.3V222.6H342H339V225.6V260.5H253.8H250.8V263.5V325.1H222.2V225.5V222.5H219.2H129.7V202H279H282V199V122.9V119.9H279H4V99.3999H177.4H180.4V96.3999V34.8999H301ZM304 31.8999H177.3V96.4999H1V123H278.9V199.1H126.6V225.6H219.1V328.2H253.7V263.6H341.9V225.7H393.2V134.6H303.9V31.8999H304Z" fill="white"/>
</g>
<defs>
<clipPath id="clip0_21_1579">
<rect width="519" height="330" fill="white"/>
</clipPath>
</defs>
</svg>
