<svg width="518" height="329" viewBox="0 0 518 329" fill="none" xmlns="http://www.w3.org/2000/svg">
<g clip-path="url(#clip0_21_1650)">
<path d="M30.7 171H14.6V134.5H0V225.6H14.6V185.6H29.3L58.1 225.6H76.3V223.5L44.7 179.2V176.7L76.4 137.2V134.5H59.2L30.7 171Z" fill="white"/>
<path d="M209.6 154.4H212.5V225.6H227.5V134.5H205L168.9 205.8H166V134.5H151.1V225.6H173.5L209.6 154.4Z" fill="white"/>
<path d="M411.3 257H414.2V328.2H429.1V237.1H406.7L370.6 308.4H367.7V237.1H352.7V328.2H375.2L411.3 257Z" fill="white"/>
<path d="M499.5 257H502.4V328.2H517.3V237.1H494.9L458.8 308.4H455.9V237.1H440.9V328.2H463.3L499.5 257Z" fill="white"/>
<path d="M429.1 134.5H352.7V149.1H383.6V225.6H398.2V149.1H429.1V134.5Z" fill="white"/>
<path d="M478.5 24.3002C495.1 24.3002 507 18.1002 505.9 0.200195H492.2C492.2 8.0002 488.7 11.7002 479.6 11.7002C471.2 11.7002 466.5 9.5002 466.5 0.200195H453C451.9 18.0002 462.1 24.3002 478.5 24.3002Z" fill="white"/>
<path d="M458.8 103.2H455.9V31.9002H440.9V123.1H463.3L499.5 51.8002H502.4V123.1H517.3V31.9002H494.9L458.8 103.2Z" fill="white"/>
<path d="M477.4 132.8C451.9 132.8 437.5 149.8 437.5 177.3V182.2C437.5 209.7 451.9 226.7 477.4 226.7C502.8 226.7 517.3 209.7 517.3 182.2V177.3C517.3 149.7 502.7 132.8 477.4 132.8ZM502.7 181.8C502.7 200.8 493.9 212.1 477.3 212.1C460.5 212.1 451.9 200.8 451.9 181.8V177.6C451.9 158.6 460.5 147.3 477.3 147.3C493.9 147.3 502.7 158.6 502.7 177.6V181.8Z" fill="white"/>
<path d="M39.7 68.6002H36.6L17.5 31.9002H0V123.1H14.6V59.8002H17.5L31.3 85.2002H45L58.9 59.8002H61.8V123.1H76.4V31.9002H58.9L39.7 68.6002Z" fill="white"/>
<path d="M366.7 58.4002V55.3002C366.7 40.0002 358.1 30.0002 341.2 30.0002C323.4 30.0002 315.4 39.5002 315.4 58.4002V66.2002H330.3V60.2002C330.3 49.5002 332.7 44.6002 341.2 44.6002C349.4 44.6002 351.8 49.9002 351.8 56.8002V58.4002C351.8 66.0002 349.8 70.4002 344.2 70.4002H335.8V84.4002H344.2C349.8 84.4002 351.8 88.4002 351.8 95.7002V97.7002C351.8 105.9 348.3 110.3 341.2 110.3C333.9 110.3 330.3 107.4 330.3 94.7002V88.7002H315.4V96.5002C315.4 114.7 322.7 124.9 341.1 124.9C359.3 124.9 366.8 113.6 366.8 98.3002V95.9002C366.8 87.4002 364.7 82.5002 360.4 79.3002V75.4002C364.1 72.5002 366.7 67.4002 366.7 58.4002Z" fill="white"/>
<path d="M404.4 84.4002C422.4 84.4002 429 74.4002 429 62.2002V55.8002C429 40.3002 421.2 30.0002 403.3 30.0002C385.4 30.0002 377.6 39.8002 377.6 58.4002V96.4002C377.6 115 385.4 124.8 403.3 124.8C421.2 124.8 429 115.2 429 96.4002V88.6002H414.1V94.6002C414.1 106.6 411 110.2 403.4 110.2C395.8 110.2 392.7 106.6 392.7 94.6002V84.4002H404.4ZM403.1 44.6002C410.7 44.6002 413.8 48.6002 413.8 57.7002V60.1002C413.8 68.1002 410.3 70.5002 403.6 70.5002H392.5V60.3002C392.6 48.2002 395.5 44.6002 403.1 44.6002Z" fill="white"/>
<path d="M53.7 237.1V328.2H68.3V298.5H78.3C96.1 298.5 104.9 291.2 104.9 267.8C104.9 243.8 95.8 237.1 78.3 237.1H53.7ZM68.2 284V251.6H78C89.6 251.6 90.2 257.2 90.2 267.8C90.2 278.2 89.7 284 78 284H68.2Z" fill="white"/>
<path d="M168.1 313.8C164.1 313.8 163 312.2 163 307.4V283.6V262C163 246.4 155.7 236.2 138.4 236.2C120.4 236.2 112.7 246.4 112.7 264.6V272.4H127.6V265.9C127.6 256.3 128.9 250.8 137.8 250.8C146.7 250.8 148 256.3 148 265.9V275.5L131.4 280C119.4 283.3 111.9 291.8 111.9 306.2C111.9 320.9 120.8 328.8 131.9 328.8C139.9 328.8 146.6 325.1 150.3 319.3H152.3C153.7 325.8 158.5 328.2 163.9 328.2H169.4V313.8H168.1ZM148.1 297.8C148.1 309.3 142.5 314.7 134.8 314.7C129.7 314.7 126.4 311.2 126.4 305.1C126.4 298.6 129.3 295.1 136.4 293.1L148 289.8V297.8H148.1Z" fill="white"/>
<path d="M0 328.2H14.6V251.7H45.5V237.1H0V328.2Z" fill="white"/>
<path d="M129.6 31.9002L121.8 79.4002H112L102.2 31.9002H88.2V34.6002L100.9 93.9002H119.4L118.5 99.4002C117.6 104.9 115 108 108.3 108H98.7V123.1H110.9C123.3 123.1 129.3 116.2 131.3 105.3L144 34.7002V32.0002H129.6V31.9002Z" fill="white"/>
<path d="M88.2 134.6V225.7H102.8V196H112.8C130.6 196 139.4 188.7 139.4 165.3C139.4 141.3 130.3 134.6 112.8 134.6H88.2ZM102.7 181.5V149.1H112.5C124.1 149.1 124.7 154.7 124.7 165.3C124.7 175.7 124.2 181.5 112.5 181.5H102.7Z" fill="white"/>
<path d="M341 187.7V134.5H264.5V187.7H279.1V149.1H326.4V187.7H341Z" fill="white"/>
<path d="M313.5 276.9H309.7V271.4H296.1V276.9H292.3C273 276.9 263.2 283.1 263.2 299.8C263.2 316.5 273 322.9 292.3 322.9H296.1V328.2H309.7V323H313.5C332.8 323 342.6 316.6 342.6 299.9C342.6 283.1 332.8 276.9 313.5 276.9ZM293.3 310.2C282.2 310.2 277.3 307.8 277.3 299.8C277.3 291.8 282.2 289.6 293.3 289.6H296V310.2H293.3ZM312.4 310.2H309.7V289.6H312.4C323.5 289.6 328.4 291.8 328.4 299.8C328.4 307.9 323.5 310.2 312.4 310.2Z" fill="white"/>
<path d="M301.3 34.8999V120H252.8H249.8V123V199.1V202.1H252.8H338V222.6H275.8C271 222.6 267 226.5 267 231.4C267 236.2 270.9 240.2 275.8 240.2H338V260.7H252.8H249.8V263.7V325.2H237.1V313.5V310.5H234.1H179.4V240H238.3H241.3V237V123V120H238.3H155V34.8999H301.3ZM183.4 86.1999H272.9C277.7 86.1999 281.6 82.2999 281.6 77.4999C281.6 72.6999 277.7 68.7999 272.9 68.7999H183.4C178.6 68.7999 174.7 72.6999 174.7 77.4999C174.7 82.2999 178.6 86.1999 183.4 86.1999ZM304.3 31.8999H152V123H238.3V237H176.4V313.5H234.1V328.2H252.8V263.7H341V237.2H275.8C272.6 237.2 270 234.6 270 231.4C270 228.2 272.6 225.6 275.8 225.6H341V199.1H252.8V123H304.3V31.8999ZM183.4 83.1999C180.2 83.1999 177.7 80.5999 177.7 77.4999C177.7 74.2999 180.3 71.7999 183.4 71.7999H272.9C276.1 71.7999 278.6 74.3999 278.6 77.4999C278.6 80.6999 276 83.1999 272.9 83.1999H183.4Z" fill="white"/>
</g>
<defs>
<clipPath id="clip0_21_1650">
<rect width="518" height="329" fill="white"/>
</clipPath>
</defs>
</svg>
