<svg width="518" height="330" viewBox="0 0 518 330" fill="none" xmlns="http://www.w3.org/2000/svg">
<g clip-path="url(#clip0_21_1722)">
<path d="M0 328.2H14.6V251.7H76.3V237.1H0V328.2Z" fill="white"/>
<path d="M30.7 171H14.6V134.5H0V225.6H14.6V185.6H29.3L58.1 225.6H76.3V223.5L44.7 179.2V176.7L76.4 137.2V134.5H59.2L30.7 171Z" fill="white"/>
<path d="M414.5 88.4999C414.5 102.7 407.2 110.2 391.6 110.2C376 110.2 367.5 100.5 366.4 84.0999H404.7C420.5 84.0999 428.5 77.1999 428.5 62.0999C428.5 43.2999 414.3 29.9999 392.1 29.9999C366.6 29.9999 351.7 48.5999 351.7 73.9999V80.8999C351.7 107.5 366.1 124.7 391.5 124.7C413.9 124.7 429.3 112.3 429 88.4999H414.5ZM392.9 44.4999C405.3 44.4999 414 52.2999 414 61.1999C414 68.0999 411.5 70.2999 402.2 70.2999H366.4C367.7 53.2999 376.8 44.4999 392.9 44.4999Z" fill="white"/>
<path d="M302.4 110.3C286.2 110.3 279.2 102.8 279.2 88.5999H264.6C264.1 110.8 275.9 124.9 302.5 124.9C326.8 124.9 339.9 112.5 339.9 96.5999C339.9 87.8999 335.9 81.3999 330.8 78.2999V75.9999C335.8 72.5999 339.9 65.8999 339.9 58.2999C339.9 41.8999 326.6 29.9999 303.2 29.9999C277.7 29.9999 264 44.3999 264.5 66.6999H279.1C279.1 52.4999 286.8 44.5999 302.8 44.5999C317.8 44.5999 325.2 49.9999 325.2 59.0999C325.2 66.3999 320.5 70.3999 313.3 70.3999H288.9V84.2999H313.5C320.6 84.2999 325.4 87.8999 325.4 96.4999C325.4 105.5 318.1 110.3 302.4 110.3Z" fill="white"/>
<path d="M249.5 306V283V271C249.5 249.7 239.1 236.2 213.8 236.2C188.3 236.2 175 251.2 176.6 276H191.2C191.2 258.7 197.9 250.8 213.8 250.8C227.5 250.8 235 258.1 235 269.8V273.8L201.1 279.8C185.1 282.7 177 291.3 177 303.7C177 321.6 190.5 329.2 205.1 329.2C216.9 329.2 227.4 323.7 235.3 315.7H237.4C238.3 322.4 243.2 328.3 252.4 328.3H258.8V314H257.5C251.3 314 249.5 312 249.5 306ZM206.2 315.8C197.8 315.8 191.4 311.4 191.4 304.1C191.4 298.3 195.2 295.2 202.7 293.7L234.8 287.7V291C234.9 305.6 223 315.8 206.2 315.8Z" fill="white"/>
<path d="M477.4 132.8C451.9 132.8 437.5 149.8 437.5 177.3V182.2C437.5 209.7 451.9 226.7 477.4 226.7C502.8 226.7 517.3 209.7 517.3 182.2V177.3C517.3 149.7 502.7 132.8 477.4 132.8ZM502.7 181.8C502.7 200.8 493.9 212.1 477.3 212.1C460.5 212.1 451.9 200.8 451.9 181.8V177.6C451.9 158.6 460.5 147.3 477.3 147.3C493.9 147.3 502.7 158.6 502.7 177.6V181.8Z" fill="white"/>
<path d="M312.6 240.9H309.7V231.8H295.8V240.9H292.9C269.7 240.9 262.3 258.4 262.3 278.5V282.1C262.3 302.2 269.8 319.7 292.9 319.7H295.8V328.2H309.7V319.7H312.6C335.8 319.7 343.2 302.2 343.2 282.1V278.5C343.2 258.4 335.8 240.9 312.6 240.9ZM292.5 305.5C281.2 305.5 276.8 298.4 276.8 282.9V277.8C276.8 262.3 281.2 255.2 292.5 255.2H295.8V305.5H292.5ZM328.6 282.9C328.6 298.4 324.2 305.5 312.9 305.5H309.6V255.2H312.9C324.2 255.2 328.6 262.3 328.6 277.8V282.9Z" fill="white"/>
<path d="M132.1 237.1H88.1V328.2H102.7V297.8H132.1C153.6 297.8 164.4 287.2 164.4 267.3C164.4 246.9 153.3 237.1 132.1 237.1ZM131.9 283.2H102.7V251.6H131.9C143.6 251.6 149.8 256.7 149.8 267.3C149.8 277.8 143.6 283.2 131.9 283.2Z" fill="white"/>
<path d="M145.7 31.9L128 61.1H124.7L107 31.9H88.2V85.1H102.7V54.6H105.6L120 77H132.7L147.2 54.6H150V85.1H164.6V31.9H145.7Z" fill="white"/>
<path d="M239.8 31.9L221.2 54.7H215.5L193.9 31.9H175.8V34.1L209.6 68.7C207.5 70.5 205.5 70.8 200.9 70.8H188.1V85.1H199.8C210.8 85.1 217.3 82 223.6 74.5L257.6 34.3V31.9H239.8Z" fill="white"/>
<path d="M478.5 24.3C495.1 24.3 507 18.1 505.9 0.199951H492.2C492.2 7.99995 488.7 11.7 479.6 11.7C471.2 11.7 466.5 9.49995 466.5 0.199951H453C451.9 18 462.1 24.3 478.5 24.3Z" fill="white"/>
<path d="M458.5 68.6H455.9V31.9H440.9V85.1H460.5L499.7 48.4H502.4V85.1H517.3V31.9H497.7L458.5 68.6Z" fill="white"/>
<path d="M141.5 172.5H88.1V225.7H103.1V213.3H141.5C157 213.3 164.5 206.2 164.5 192.8C164.6 179.2 157.6 172.5 141.5 172.5ZM140.1 199H103.2V186.8H140.1C147 186.8 150 187.9 150 192.8C149.9 197.9 147 199 140.1 199Z" fill="white"/>
<path d="M193.9 209.1H191.3V172.5H176.3V225.6H195.9L235.2 188.9H237.8V225.6H252.8V172.5H233.2L193.9 209.1Z" fill="white"/>
<path d="M341 225.6V172.5H264.5V225.6H279.1V187H326.4V225.6H341Z" fill="white"/>
<path d="M429.1 172.5H352.7V187H383.6V225.6H398.2V187H429.1V172.5Z" fill="white"/>
<path d="M370.3 273.8H367.7V237.1H352.7V290.3H372.3L411.6 253.6H414.2V290.3H429.1V237.1H409.5L370.3 273.8Z" fill="white"/>
<path d="M458.5 273.8H455.9V237.1H440.9V290.3H460.5L499.7 253.6H502.4V290.3H517.3V237.1H497.7L458.5 273.8Z" fill="white"/>
<path d="M514.3 99.5999V120.1H443.9V99.5999H514.3ZM517.3 96.5999H440.9V123.1H517.3V96.5999Z" fill="white"/>
<path d="M514.3 304.7V325.2H355.7V304.7H514.3ZM517.3 301.7H352.7V328.2H517.3V301.7Z" fill="white"/>
<path d="M73.4 34.8999V96.4999V99.4999H76.4H249.8V134.4V137.4H252.8H426.2V158H91.2V123.1V120.1H88.2H3V34.8999H73.4ZM76.4 31.8999H0V123H88.2V161H429.2V134.5H252.8V96.5999H76.4V31.8999Z" fill="white"/>
</g>
<defs>
<clipPath id="clip0_21_1722">
<rect width="518" height="330" fill="white"/>
</clipPath>
</defs>
</svg>
