<svg width="518" height="330" viewBox="0 0 518 330" fill="none" xmlns="http://www.w3.org/2000/svg">
<g clip-path="url(#clip0_21_1796)">
<path d="M0 328.2H14.6V251.7H76.3V237.1H0V328.2Z" fill="white"/>
<path d="M30.7 171H14.6V134.5H0V225.6H14.6V185.6H29.3L58.1 225.6H76.3V223.5L44.7 179.2V176.7L76.4 137.2V134.5H59.2L30.7 171Z" fill="white"/>
<path d="M249.5 306V283V271C249.5 249.7 239.1 236.2 213.8 236.2C188.3 236.2 175 251.2 176.6 276H191.2C191.2 258.7 197.9 250.8 213.8 250.8C227.5 250.8 235 258.1 235 269.8V273.8L201.1 279.8C185.1 282.7 177 291.3 177 303.7C177 321.6 190.5 329.2 205.1 329.2C216.9 329.2 227.4 323.7 235.3 315.7H237.4C238.3 322.4 243.2 328.3 252.4 328.3H258.8V314H257.5C251.3 314 249.5 312 249.5 306ZM206.2 315.8C197.8 315.8 191.4 311.4 191.4 304.1C191.4 298.3 195.2 295.2 202.7 293.7L234.8 287.7V291C234.9 305.6 223 315.8 206.2 315.8Z" fill="white"/>
<path d="M312.6 240.9H309.7V231.8H295.8V240.9H292.9C269.7 240.9 262.3 258.4 262.3 278.5V282.1C262.3 302.2 269.8 319.7 292.9 319.7H295.8V328.2H309.7V319.7H312.6C335.8 319.7 343.2 302.2 343.2 282.1V278.5C343.2 258.4 335.8 240.9 312.6 240.9ZM292.5 305.5C281.2 305.5 276.8 298.4 276.8 282.9V277.8C276.8 262.3 281.2 255.2 292.5 255.2H295.8V305.5H292.5ZM328.6 282.9C328.6 298.4 324.2 305.5 312.9 305.5H309.6V255.2H312.9C324.2 255.2 328.6 262.3 328.6 277.8V282.9Z" fill="white"/>
<path d="M132.1 134.5H88.1V225.6H102.7V195.2H132.1C153.6 195.2 164.4 184.6 164.4 164.7C164.4 144.3 153.3 134.5 132.1 134.5ZM131.9 180.6H102.7V149H131.9C143.6 149 149.8 154.1 149.8 164.7C149.8 175.2 143.6 180.6 131.9 180.6Z" fill="white"/>
<path d="M132.1 237.1H88.1V328.2H102.7V297.8H132.1C153.6 297.8 164.4 287.2 164.4 267.3C164.4 246.9 153.3 237.1 132.1 237.1ZM131.9 283.2H102.7V251.6H131.9C143.6 251.6 149.8 256.7 149.8 267.3C149.8 277.8 143.6 283.2 131.9 283.2Z" fill="white"/>
<path d="M193.9 209.2H191.3V172.5H176.3V225.6H195.9L235.2 189H237.8V225.6H252.8V172.5H233.2L193.9 209.2Z" fill="white"/>
<path d="M341 225.7V172.5H264.5V225.7H279.1V187.1H326.4V225.7H341Z" fill="white"/>
<path d="M145.7 31.9L128 61.1H124.7L107 31.9H88.2V85.1H102.7V54.6H105.6L120 77H132.7L147.2 54.6H150V85.1H164.6V31.9H145.7Z" fill="white"/>
<path d="M239.8 31.9L221.2 54.7H215.5L193.9 31.9H175.8V34.1L209.6 68.7C207.5 70.5 205.5 70.8 200.9 70.8H188.1V85.1H199.8C210.8 85.1 217.3 82 223.6 74.5L257.6 34.3V31.9H239.8Z" fill="white"/>
<path d="M478.5 24.3C495.1 24.3 507 18.1 505.9 0.199951H492.2C492.2 7.99995 488.7 11.7 479.6 11.7C471.2 11.7 466.5 9.49995 466.5 0.199951H453C451.9 18.1 462.1 24.3 478.5 24.3Z" fill="white"/>
<path d="M458.8 103.2H455.9V31.9H440.9V123.1H463.3L499.5 51.8H502.4V123.1H517.3V31.9H494.9L458.8 103.2Z" fill="white"/>
<path d="M366.7 58.3999V55.2999C366.7 39.9999 358.1 29.9999 341.2 29.9999C323.4 29.9999 315.4 39.4999 315.4 58.3999V66.1999H330.3V60.1999C330.3 49.4999 332.7 44.5999 341.2 44.5999C349.4 44.5999 351.8 49.8999 351.8 56.7999V58.3999C351.8 65.9999 349.8 70.3999 344.2 70.3999H335.8V84.3999H344.2C349.8 84.3999 351.8 88.3999 351.8 95.6999V97.6999C351.8 105.9 348.3 110.3 341.2 110.3C333.9 110.3 330.3 107.4 330.3 94.6999V88.6999H315.4V96.4999C315.4 114.7 322.7 124.9 341.1 124.9C359.3 124.9 366.8 113.6 366.8 98.2999V95.8999C366.8 87.3999 364.7 82.4999 360.4 79.2999V75.3999C364.1 72.4999 366.7 67.3999 366.7 58.3999Z" fill="white"/>
<path d="M404.4 84.3999C422.4 84.3999 429 74.3999 429 62.1999V55.7999C429 40.2999 421.2 29.9999 403.3 29.9999C385.4 29.9999 377.6 39.7999 377.6 58.3999V96.3999C377.6 115 385.4 124.8 403.3 124.8C421.2 124.8 429 115.2 429 96.3999V88.5999H414.1V94.5999C414.1 106.6 411 110.2 403.4 110.2C395.8 110.2 392.7 106.6 392.7 94.5999V84.3999H404.4ZM403.1 44.5999C410.7 44.5999 413.8 48.5999 413.8 57.6999V60.0999C413.8 68.0999 410.3 70.4999 403.6 70.4999H392.5V60.2999C392.6 48.1999 395.5 44.5999 403.1 44.5999Z" fill="white"/>
<path d="M491.4 132.8C473.6 132.8 465.7 142.6 465.7 161.2V199.2C465.7 217.8 473.5 227.6 491.4 227.6C509.3 227.6 517.1 217.8 517.1 199.2V161.2C517.1 142.6 509.3 132.8 491.4 132.8ZM502.2 197.4C502.2 209.4 499.1 213 491.5 213C483.9 213 480.8 209.4 480.8 197.4V163C480.8 151 483.9 147.4 491.5 147.4C499.1 147.4 502.2 151 502.2 163V197.4Z" fill="white"/>
<path d="M403.1 134.5V149.1H415.4H421.2V225.6H435.8V149.1H441.7H454V134.5H403.1Z" fill="white"/>
<path d="M370.3 311.8H367.7V275.1H352.7V328.2H372.3L411.6 291.5H414.2V328.2H429.1V275.1H409.5L370.3 311.8Z" fill="white"/>
<path d="M458.5 311.8H455.9V275.1H440.9V328.2H460.5L499.7 291.5H502.4V328.2H517.3V275.1H497.7L458.5 311.8Z" fill="white"/>
<path d="M297.2 34.8999V134.5V137.5H300.2H393.2V237.1V240.1H396.2H514.3V260.6H355.7V161V158H352.7H179.3V123.1V120.1H176.3H3V34.8999H73.4V96.4999V99.4999H76.4H264.5H267.5V96.4999V34.8999H297.2ZM300.2 31.8999H264.5V96.4999H76.4V31.8999H0V123H176.4V161H352.8V263.6H517.4V237.1H396.2V134.5H300.2V31.8999Z" fill="white"/>
</g>
<defs>
<clipPath id="clip0_21_1796">
<rect width="518" height="330" fill="white"/>
</clipPath>
</defs>
</svg>
