<svg width="518" height="330" viewBox="0 0 518 330" fill="none" xmlns="http://www.w3.org/2000/svg">
<g clip-path="url(#clip0_21_1868)">
<path d="M0 328.2H14.6V251.7H76.3V237.1H0V328.2Z" fill="white"/>
<path d="M499.5 257H502.4V328.2H517.3V237.1H494.9L458.8 308.4H455.9V237.1H440.9V328.2H463.3L499.5 257Z" fill="white"/>
<path d="M411.3 257H414.2V328.2H429.1V237.1H406.7L370.6 308.4H367.7V237.1H352.7V328.2H375.2L411.3 257Z" fill="white"/>
<path d="M249.5 306V283V271C249.5 249.7 239.1 236.2 213.8 236.2C188.3 236.2 175 251.2 176.6 276H191.2C191.2 258.7 197.9 250.8 213.8 250.8C227.5 250.8 235 258.1 235 269.8V273.8L201.1 279.8C185.1 282.7 177 291.3 177 303.7C177 321.6 190.5 329.2 205.1 329.2C216.9 329.2 227.4 323.7 235.3 315.7H237.4C238.3 322.4 243.2 328.3 252.4 328.3H258.8V314H257.5C251.3 314 249.5 312 249.5 306ZM206.2 315.8C197.8 315.8 191.4 311.4 191.4 304.1C191.4 298.3 195.2 295.2 202.7 293.7L234.8 287.7V291C234.9 305.6 223 315.8 206.2 315.8Z" fill="white"/>
<path d="M132.1 237.1H88.1001V328.2H102.7V297.8H132.1C153.6 297.8 164.4 287.2 164.4 267.3C164.4 246.9 153.3 237.1 132.1 237.1ZM131.9 283.2H102.7V251.6H131.9C143.6 251.6 149.8 256.7 149.8 267.3C149.8 277.8 143.6 283.2 131.9 283.2Z" fill="white"/>
<path d="M208.5 31.9L190.8 61.1H187.4L169.8 31.9H150.9V85.1H165.5V54.6H168.3L182.8 77H195.5L209.9 54.6H212.8V85.1H227.3V31.9H208.5Z" fill="white"/>
<path d="M298.5 31.9L279.9 54.7H274.2L252.6 31.9H234.5V34.1L268.3 68.7C266.2 70.5 264.2 70.8 259.6 70.8H246.8V85.1H258.5C269.5 85.1 276 82 282.3 74.5L316.3 34.3V31.9H298.5Z" fill="white"/>
<path d="M370.9 58.3999V55.2999C370.9 39.9999 362.3 29.9999 345.4 29.9999C327.6 29.9999 319.6 39.4999 319.6 58.3999V66.1999H334.5V60.1999C334.5 49.4999 336.9 44.5999 345.4 44.5999C353.6 44.5999 356 49.8999 356 56.7999V58.3999C356 65.9999 354 70.3999 348.4 70.3999H340V84.3999H348.4C354 84.3999 356 88.3999 356 95.6999V97.6999C356 105.9 352.5 110.3 345.4 110.3C338.1 110.3 334.5 107.4 334.5 94.6999V88.6999H319.6V96.4999C319.6 114.7 326.9 124.9 345.3 124.9C363.5 124.9 371 113.6 371 98.2999V95.8999C371 87.3999 368.9 82.4999 364.6 79.2999V75.3999C368.4 72.4999 370.9 67.3999 370.9 58.3999Z" fill="white"/>
<path d="M408.6 84.3999C426.6 84.3999 433.2 74.3999 433.2 62.1999V55.7999C433.2 40.2999 425.4 29.9999 407.5 29.9999C389.6 29.9999 381.8 39.7999 381.8 58.3999V96.3999C381.8 115 389.6 124.8 407.5 124.8C425.4 124.8 433.2 115.2 433.2 96.3999V88.5999H418.3V94.5999C418.3 106.6 415.2 110.2 407.6 110.2C400 110.2 396.9 106.6 396.9 94.5999V84.3999H408.6ZM407.4 44.5999C415 44.5999 418.1 48.5999 418.1 57.6999V60.0999C418.1 68.0999 414.6 70.4999 407.9 70.4999H396.8V60.2999C396.8 48.1999 399.7 44.5999 407.4 44.5999Z" fill="white"/>
<path d="M51 137.1V134.5H35.4L23.6 171.1H14.6V134.5H0V171.1V185.7V225.6H14.6V185.7H23.5L35.4 225.6H51V223.1L37.6 179.8V176.6L51 137.1Z" fill="white"/>
<path d="M116.1 172.5H62.7V225.7H77.7V213.3H116.1C131.6 213.3 139.1 206.2 139.1 192.8C139.1 179.2 132.2 172.5 116.1 172.5ZM114.6 199H77.7V186.8H114.6C121.5 186.8 124.5 187.9 124.5 192.8C124.5 197.9 121.6 199 114.6 199Z" fill="white"/>
<path d="M168.5 209.1H165.9V172.5H150.9V225.6H170.5L209.7 188.9H212.4V225.6H227.3V172.5H207.7L168.5 209.1Z" fill="white"/>
<path d="M315.5 225.6V172.5H239.1V225.6H253.7V187H300.9V225.6H315.5Z" fill="white"/>
<path d="M388.6 199C388.6 216.9 399.2 225.7 417.8 225.7H439.2C457.8 225.7 468.4 216.9 468.4 199C468.4 181.1 457.8 172.5 439.2 172.5H417.8C399.2 172.5 388.6 181 388.6 199ZM453.8 199C453.8 207 450.1 211.4 438.1 211.4H418.9C406.8 211.4 403.2 207 403.2 199C403.2 191 406.9 186.8 418.9 186.8H438.1C450.1 186.7 453.8 190.9 453.8 199Z" fill="white"/>
<path d="M327.3 172.5V187H345.5V225.6H360.1V187H378.2V172.5H327.3Z" fill="white"/>
<path d="M312.6 240.9H309.7V231.8H295.8V240.9H292.9C269.7 240.9 262.3 258.4 262.3 278.5V282.1C262.3 302.2 269.8 319.7 292.9 319.7H295.8V328.2H309.7V319.7H312.6C335.8 319.7 343.2 302.2 343.2 282.1V278.5C343.2 258.4 335.8 240.9 312.6 240.9ZM292.5 305.5C281.2 305.5 276.8 298.4 276.8 282.9V277.8C276.8 262.3 281.2 255.2 292.5 255.2H295.8V305.5H292.5ZM328.6 282.9C328.6 298.4 324.2 305.5 312.9 305.5H309.6V255.2H312.9C324.2 255.2 328.6 262.3 328.6 277.8V282.9Z" fill="white"/>
<path d="M478.5 24.3C495.1 24.3 507 18.1 505.9 0.199951H492.2C492.2 7.99995 488.7 11.7 479.6 11.7C471.2 11.7 466.5 9.49995 466.5 0.199951H453C451.9 18 462.1 24.3 478.5 24.3Z" fill="white"/>
<path d="M458.5 68.6H455.9V31.9H440.9V85.1H460.5L499.7 48.4H502.4V85.1H517.3V31.9H497.7L458.5 68.6Z" fill="white"/>
<path d="M131.3 34.8999V96.4999V99.4999H134.3H299V134.4V137.4H302H440.9H443.9V134.4V99.4999H514.3V222.6H481V161V158H478H64.5V123.1V120.1H61.5H3V34.8999H131.3ZM134.3 31.8999H0V123H61.5V161H478V225.6H517.3V96.5999H440.9V134.5H302V96.5999H134.3V31.8999Z" fill="white"/>
</g>
<defs>
<clipPath id="clip0_21_1868">
<rect width="518" height="330" fill="white"/>
</clipPath>
</defs>
</svg>
