<svg width="518" height="330" viewBox="0 0 518 330" fill="none" xmlns="http://www.w3.org/2000/svg">
<g clip-path="url(#clip0_21_1941)">
<path d="M0 328.2H14.6V251.7H76.3V237.1H0V328.2Z" fill="white"/>
<path d="M499.5 257H502.4V328.2H517.3V237.1H494.9L458.8 308.4H455.9V237.1H440.9V328.2H463.3L499.5 257Z" fill="white"/>
<path d="M249.5 306V283V271C249.5 249.7 239.1 236.2 213.8 236.2C188.3 236.2 175 251.2 176.6 276H191.2C191.2 258.7 197.9 250.8 213.8 250.8C227.5 250.8 235 258.1 235 269.8V273.8L201.1 279.8C185.1 282.7 177 291.3 177 303.7C177 321.6 190.5 329.2 205.1 329.2C216.9 329.2 227.4 323.7 235.3 315.7H237.4C238.3 322.4 243.2 328.3 252.4 328.3H258.8V314H257.5C251.3 314 249.5 312 249.5 306ZM206.2 315.8C197.8 315.8 191.4 311.4 191.4 304.1C191.4 298.3 195.2 295.2 202.7 293.7L234.8 287.7V291C234.9 305.6 223 315.8 206.2 315.8Z" fill="white"/>
<path d="M132.1 237.1H88.1V328.2H102.7V297.8H132.1C153.6 297.8 164.4 287.2 164.4 267.3C164.4 246.9 153.3 237.1 132.1 237.1ZM131.9 283.2H102.7V251.6H131.9C143.6 251.6 149.8 256.7 149.8 267.3C149.8 277.8 143.6 283.2 131.9 283.2Z" fill="white"/>
<path d="M208.5 31.9002L190.8 61.1002H187.4L169.8 31.9002H150.9V85.1002H165.5V54.6002H168.3L182.8 77.0002H195.5L209.9 54.6002H212.8V85.1002H227.3V31.9002H208.5Z" fill="white"/>
<path d="M298.5 31.9002L279.9 54.7002H274.2L252.6 31.9002H234.5V34.1002L268.3 68.7002C266.2 70.5002 264.2 70.8002 259.6 70.8002H246.8V85.1002H258.5C269.5 85.1002 276 82.0002 282.3 74.5002L316.3 34.3002V31.9002H298.5Z" fill="white"/>
<path d="M370.9 58.4002V55.3002C370.9 40.0002 362.3 30.0002 345.4 30.0002C327.6 30.0002 319.6 39.5002 319.6 58.4002V66.2002H334.5V60.2002C334.5 49.5002 336.9 44.6002 345.4 44.6002C353.6 44.6002 356 49.9002 356 56.8002V58.4002C356 66.0002 354 70.4002 348.4 70.4002H340V84.4002H348.4C354 84.4002 356 88.4002 356 95.7002V97.7002C356 105.9 352.5 110.3 345.4 110.3C338.1 110.3 334.5 107.4 334.5 94.7002V88.7002H319.6V96.5002C319.6 114.7 326.9 124.9 345.3 124.9C363.5 124.9 371 113.6 371 98.3002V95.9002C371 87.4002 368.9 82.5002 364.6 79.3002V75.4002C368.4 72.5002 370.9 67.4002 370.9 58.4002Z" fill="white"/>
<path d="M408.6 84.4002C426.6 84.4002 433.2 74.4002 433.2 62.2002V55.8002C433.2 40.3002 425.4 30.0002 407.5 30.0002C389.6 30.0002 381.8 39.8002 381.8 58.4002V96.4002C381.8 115 389.6 124.8 407.5 124.8C425.4 124.8 433.2 115.2 433.2 96.4002V88.6002H418.3V94.6002C418.3 106.6 415.2 110.2 407.6 110.2C400 110.2 396.9 106.6 396.9 94.6002V84.4002H408.6ZM407.4 44.6002C415 44.6002 418.1 48.6002 418.1 57.7002V60.1002C418.1 68.1002 414.6 70.5002 407.9 70.5002H396.8V60.3002C396.8 48.2002 399.7 44.6002 407.4 44.6002Z" fill="white"/>
<path d="M51 137.1V134.5H35.4L23.6 171.1H14.6V134.5H0V171.1V185.7V225.6H14.6V185.7H23.5L35.4 225.6H51V223.1L37.6 179.8V176.6L51 137.1Z" fill="white"/>
<path d="M116.1 172.5H62.7V225.7H77.7V213.3H116.1C131.6 213.3 139.1 206.2 139.1 192.8C139.1 179.2 132.2 172.5 116.1 172.5ZM114.6 199H77.7V186.8H114.6C121.5 186.8 124.5 187.9 124.5 192.8C124.5 197.9 121.6 199 114.6 199Z" fill="white"/>
<path d="M168.5 209.1H165.9V172.5H150.9V225.6H170.5L209.7 188.9H212.4V225.6H227.3V172.5H207.7L168.5 209.1Z" fill="white"/>
<path d="M315.5 225.6V172.5H239.1V225.6H253.7V187H300.9V225.6H315.5Z" fill="white"/>
<path d="M388.6 199C388.6 216.9 399.2 225.7 417.8 225.7H439.2C457.8 225.7 468.4 216.9 468.4 199C468.4 181.1 457.8 172.5 439.2 172.5H417.8C399.2 172.5 388.6 181 388.6 199ZM453.8 199C453.8 207 450.1 211.4 438.1 211.4H418.9C406.8 211.4 403.2 207 403.2 199C403.2 191 406.9 186.8 418.9 186.8H438.1C450.1 186.7 453.8 190.9 453.8 199Z" fill="white"/>
<path d="M327.3 172.5V187H345.5V225.6H360.1V187H378.2V172.5H327.3Z" fill="white"/>
<path d="M370.3 311.8H367.7V275.1H352.7V328.2H372.3L411.6 291.5H414.2V328.2H429.1V275.1H409.5L370.3 311.8Z" fill="white"/>
<path d="M313.5 276.9H309.7V271.4H296.1V276.9H292.3C273 276.9 263.2 283.1 263.2 299.8C263.2 316.5 273 322.9 292.3 322.9H296.1V328.2H309.7V323H313.5C332.8 323 342.6 316.6 342.6 299.9C342.6 283.1 332.8 276.9 313.5 276.9ZM293.3 310.2C282.2 310.2 277.3 307.8 277.3 299.8C277.3 291.8 282.2 289.6 293.3 289.6H296V310.2H293.3ZM312.4 310.2H309.7V289.6H312.4C323.5 289.6 328.4 291.8 328.4 299.8C328.4 307.9 323.5 310.2 312.4 310.2Z" fill="white"/>
<path d="M478.5 24.3002C495.1 24.3002 507 18.1002 505.9 0.200195H492.2C492.2 8.0002 488.7 11.7002 479.6 11.7002C471.2 11.7002 466.5 9.5002 466.5 0.200195H453C451.9 18.0002 462.1 24.3002 478.5 24.3002Z" fill="white"/>
<path d="M458.5 68.6002H455.9V31.9002H440.9V85.1002H460.5L499.7 48.4002H502.4V85.1002H517.3V31.9002H497.7L458.5 68.6002Z" fill="white"/>
<path d="M131.3 34.8999V96.4999V99.4999H134.3H299V134.4V137.4H302H440.9H443.9V134.4V99.4999H514.3V222.6H481V161V158H478H64.5V123.1V120.1H61.5H3V34.8999H131.3ZM134.3 31.8999H0V123H61.5V161H478V225.6H517.3V96.5999H440.9V134.5H302V96.5999H134.3V31.8999Z" fill="white"/>
<path d="M426.1 240.1V260.6H267.5V250V240.1H426.1ZM429.1 237.1H264.5V250V263.6H429.1V237.1Z" fill="white"/>
</g>
<defs>
<clipPath id="clip0_21_1941">
<rect width="518" height="330" fill="white"/>
</clipPath>
</defs>
</svg>
