<svg width="519" height="330" viewBox="0 0 519 330" fill="none" xmlns="http://www.w3.org/2000/svg">
<g clip-path="url(#clip0_21_2016)">
<path d="M0 328.2H14.6V289.6H76.3V275H0V328.2Z" fill="white"/>
<path d="M193.9 164.4H191.3V134.5H176.3V187.7H192.3L209.7 157.8H212.3V187.7H227.3V134.5H211.4L193.9 164.4Z" fill="white"/>
<path d="M30.7 171H14.6V134.5H0V225.6H14.6V185.6H29.3L58.1 225.6H76.3V223.5L44.7 179.2V176.7L76.4 137.2V134.5H59.2L30.7 171Z" fill="white"/>
<path d="M411.3 257H414.2V328.2H429.1V237.1H406.7L370.6 308.4H367.7V237.1H352.7V328.2H375.2L411.3 257Z" fill="white"/>
<path d="M499.5 257H502.4V328.2H517.3V237.1H494.9L458.8 308.4H455.9V237.1H440.9V328.2H463.3L499.5 257Z" fill="white"/>
<path d="M249.5 306V283V271C249.5 249.7 239.1 236.2 213.8 236.2C188.3 236.2 175 251.2 176.6 276H191.2C191.2 258.7 197.9 250.8 213.8 250.8C227.5 250.8 235 258.1 235 269.8V273.8L201.1 279.8C185.1 282.7 177 291.3 177 303.7C177 321.6 190.5 329.2 205.1 329.2C216.9 329.2 227.4 323.7 235.3 315.7H237.4C238.3 322.4 243.2 328.3 252.4 328.3H258.8V314H257.5C251.3 314 249.5 312 249.5 306ZM206.2 315.8C197.8 315.8 191.4 311.4 191.4 304.1C191.4 298.3 195.2 295.2 202.7 293.7L234.8 287.7V291C234.9 305.6 223 315.8 206.2 315.8Z" fill="white"/>
<path d="M312.6 240.9H309.7V231.8H295.8V240.9H292.9C269.7 240.9 262.3 258.4 262.3 278.5V282.1C262.3 302.2 269.8 319.7 292.9 319.7H295.8V328.2H309.7V319.7H312.6C335.8 319.7 343.2 302.2 343.2 282.1V278.5C343.2 258.4 335.8 240.9 312.6 240.9ZM292.5 305.5C281.2 305.5 276.8 298.4 276.8 282.9V277.8C276.8 262.3 281.2 255.2 292.5 255.2H295.8V305.5H292.5ZM328.6 282.9C328.6 298.4 324.2 305.5 312.9 305.5H309.6V255.2H312.9C324.2 255.2 328.6 262.3 328.6 277.8V282.9Z" fill="white"/>
<path d="M39.7 68.6002H36.6L17.5 31.9002H0V123.1H14.6V59.8002H17.5L31.3 85.2002H45L58.9 59.8002H61.8V123.1H76.4V31.9002H58.9L39.7 68.6002Z" fill="white"/>
<path d="M134.9 79.6002H123L104.9 31.9002H88.1V34.6002L112.7 93.9002H129.2L126.2 101.5C124 107.1 122.2 108 116.4 108H104.7V122.9H116.9C130.2 122.9 136.4 118.4 140.8 108.3L169.8 34.4002V31.7002H153.4L134.9 79.6002Z" fill="white"/>
<path d="M278.9 30.1002C253.4 30.1002 238.5 48.7002 238.5 74.1002V81.0002C238.5 107.6 252.9 124.8 278.3 124.8C300.7 124.8 316.1 112.4 315.8 88.6002H301.2C301.2 102.8 293.9 110.3 278.3 110.3C261.6 110.3 253 99.2002 253 80.6002V74.4002C253 54.8002 262.3 44.6002 279.6 44.6002C292 44.6002 300.7 52.4002 300.7 61.3002C300.7 68.2002 298.2 70.4002 288.9 70.4002H249.6V84.2002H291.4C307.2 84.2002 315.2 77.3002 315.2 62.2002C315.3 43.4002 301.1 30.1002 278.9 30.1002Z" fill="white"/>
<path d="M365.5 24.3002C382.1 24.3002 394 18.1002 392.9 0.200195H379.2C379.2 8.0002 375.7 11.7002 366.6 11.7002C358.2 11.7002 353.5 9.5002 353.5 0.200195H340C338.9 18.1002 349.1 24.3002 365.5 24.3002Z" fill="white"/>
<path d="M345.7 103.2H342.8V31.9002H327.9V123.1H350.3L386.4 51.8002H389.3V123.1H404.3V31.9002H381.8L345.7 103.2Z" fill="white"/>
<path d="M227.7 58.6002V55.5002C227.7 40.2002 219.1 30.2002 202.2 30.2002C184.4 30.2002 176.4 39.7002 176.4 58.6002V66.4002H191.3V60.4002C191.3 49.7002 193.7 44.8002 202.2 44.8002C210.4 44.8002 212.8 50.1002 212.8 57.0002V58.6002C212.8 66.2002 210.8 70.6002 205.2 70.6002H196.8V84.6002H205.2C210.8 84.6002 212.8 88.6002 212.8 95.9002V97.9002C212.8 106.1 209.3 110.5 202.2 110.5C194.9 110.5 191.3 107.6 191.3 94.9002V88.9002H176.4V96.7002C176.4 114.9 183.7 125.1 202.1 125.1C220.3 125.1 227.8 113.8 227.8 98.5002V96.1002C227.8 87.6002 225.7 82.7002 221.4 79.5002V75.6002C225.1 72.8002 227.7 67.6002 227.7 58.6002Z" fill="white"/>
<path d="M141.5 134.5H88.1V187.7H103.1V175.3H141.5C157 175.3 164.5 168.2 164.5 154.8C164.6 141.3 157.6 134.5 141.5 134.5ZM140.1 161H103.2V148.8H140.1C147 148.8 150 149.9 150 154.8C149.9 159.9 147 161 140.1 161Z" fill="white"/>
<path d="M315.5 187.7V134.5H239.1V187.7H253.7V149.1H300.9V187.7H315.5Z" fill="white"/>
<path d="M439.1 199C439.1 216.9 449.7 225.7 468.3 225.7H489.7C508.3 225.7 518.9 216.9 518.9 199C518.9 181.1 508.3 172.5 489.7 172.5H468.3C449.7 172.5 439.1 181 439.1 199ZM504.4 199C504.4 207 500.7 211.4 488.7 211.4H469.5C457.4 211.4 453.8 207 453.8 199C453.8 191 457.5 186.8 469.5 186.8H488.7C500.7 186.7 504.4 190.9 504.4 199Z" fill="white"/>
<path d="M378 172.5V187H396.1V225.6H410.7V187H428.9V172.5H378Z" fill="white"/>
<path d="M141.5 275H88.1V328.2H103.1V315.8H141.5C157 315.8 164.5 308.7 164.5 295.3C164.6 281.8 157.6 275 141.5 275ZM140.1 301.5H103.2V289.3H140.1C147 289.3 150 290.4 150 295.3C149.9 300.5 147 301.5 140.1 301.5Z" fill="white"/>
<path d="M514.3 34.8999V158H364H361V161V222.6H164.6H161.6V225.6V260.5H3V240H88.2H91.2V237V202.1H327.9H330.9V199.1V137.5H417.5H420.5V134.5V34.8999H514.3ZM517.3 31.8999H417.4V134.5H327.8V199.1H88.2V237H0V263.5H164.6V225.6H364V161H517.3V31.8999Z" fill="white"/>
</g>
<defs>
<clipPath id="clip0_21_2016">
<rect width="519" height="330" fill="white"/>
</clipPath>
</defs>
</svg>
