<svg width="518" height="329" viewBox="0 0 518 329" fill="none" xmlns="http://www.w3.org/2000/svg">
<g clip-path="url(#clip0_21_2157)">
<path d="M30.7 171H14.6V134.5H0V225.6H14.6V185.6H29.3L58.1 225.6H76.3V223.5L44.7 179.2V176.7L76.4 137.2V134.5H59.2L30.7 171Z" fill="white"/>
<path d="M39.7 68.6H36.6L17.5 31.9H0V123.1H14.6V59.8H17.5L31.3 85.2H45L58.9 59.8H61.8V123.1H76.4V31.9H58.9L39.7 68.6Z" fill="white"/>
<path d="M134.9 79.6H123L104.9 31.9H88.1V34.6L112.7 93.9H129.2L126.2 101.5C124 107.1 122.2 108 116.4 108H104.7V122.9H116.9C130.2 122.9 136.4 118.4 140.8 108.3L169.8 34.4V31.7H153.4L134.9 79.6Z" fill="white"/>
<path d="M214.3 110.3C198.1 110.3 191.1 102.8 191.1 88.6H176.5C176 110.8 187.8 124.9 214.4 124.9C238.7 124.9 251.8 112.5 251.8 96.6C251.8 87.9 247.8 81.4 242.7 78.3V76C247.7 72.6 251.8 65.9 251.8 58.3C251.8 41.9 238.5 30 215.1 30C189.6 30 175.9 44.4 176.4 66.7H191C191 52.5 198.7 44.6 214.7 44.6C229.7 44.6 237.1 50 237.1 59.1C237.1 66.4 232.4 70.4 225.2 70.4H200.8V84.3H225.2C232.3 84.3 237.1 87.9 237.1 96.5C237.3 105.5 230 110.3 214.3 110.3Z" fill="white"/>
<path d="M303.8 30.1C278.3 30.1 263.4 48.7 263.4 74.1V81C263.4 107.6 277.8 124.8 303.2 124.8C325.6 124.8 341 112.4 340.7 88.6H326.1C326.1 102.8 318.8 110.3 303.2 110.3C286.5 110.3 277.9 99.2 277.9 80.6V74.4C277.9 54.8 287.2 44.6 304.5 44.6C316.9 44.6 325.6 52.4 325.6 61.3C325.6 68.2 323.1 70.4 313.8 70.4H274.5V84.2H316.3C332.1 84.2 340.1 77.3 340.1 62.2C340.1 43.4 325.9 30.1 303.8 30.1Z" fill="white"/>
<path d="M390.4 24.3C407 24.3 418.9 18.1 417.8 0.200012H404.1C404.1 8.00001 400.6 11.7 391.5 11.7C383.1 11.7 378.4 9.50001 378.4 0.200012H364.9C363.7 18.1 373.9 24.3 390.4 24.3Z" fill="white"/>
<path d="M370.6 103.2H367.7V31.9H352.7V123.1H375.2L411.3 51.8H414.2V123.1H429.1V31.9H406.7L370.6 103.2Z" fill="white"/>
<path d="M141.5 134.5H88.1V187.7H103.1V175.3H141.5C157 175.3 164.5 168.2 164.5 154.8C164.6 141.3 157.6 134.5 141.5 134.5ZM140.1 161H103.2V148.8H140.1C147 148.8 150 149.9 150 154.8C149.9 159.9 147 161 140.1 161Z" fill="white"/>
<path d="M193.9 171.2H191.3V134.5H176.3V187.7H195.9L235.2 151H237.8V187.7H252.8V134.5H233.2L193.9 171.2Z" fill="white"/>
<path d="M341 187.7V134.5H264.5V187.7H279.1V149.1H326.4V187.7H341Z" fill="white"/>
<path d="M352.7 134.5V149.1H370.9V187.7H385.5V149.1H403.7V134.5H352.7Z" fill="white"/>
<path d="M437.4 132.3C419.6 132.3 411.7 142.1 411.7 160.7V198.7C411.7 217.3 419.5 227.1 437.4 227.1C455.2 227.1 463.1 217.3 463.1 198.7V160.7C463.1 142.2 455.2 132.3 437.4 132.3ZM448.1 196.9C448.1 208.9 445 212.5 437.4 212.5C429.8 212.5 426.7 208.9 426.7 196.9V162.5C426.7 150.5 429.8 146.9 437.4 146.9C445 146.9 448.1 150.5 448.1 162.5V196.9Z" fill="white"/>
<path d="M53.7 237.1V328.2H68.3V298.5H78.3C96.1 298.5 104.9 291.2 104.9 267.8C104.9 243.8 95.8 237.1 78.3 237.1H53.7ZM68.2 284V251.6H78C89.6 251.6 90.2 257.2 90.2 267.8C90.2 278.2 89.7 284 78 284H68.2Z" fill="white"/>
<path d="M168.1 313.8C164.1 313.8 163 312.2 163 307.4V283.6V262C163 246.4 155.7 236.2 138.4 236.2C120.4 236.2 112.7 246.4 112.7 264.6V272.4H127.6V265.9C127.6 256.3 128.9 250.8 137.8 250.8C146.7 250.8 148 256.3 148 265.9V275.5L131.4 280C119.4 283.3 111.9 291.8 111.9 306.2C111.9 320.9 120.8 328.8 131.9 328.8C139.9 328.8 146.6 325.1 150.3 319.3H152.3C153.7 325.8 158.5 328.2 163.9 328.2H169.4V313.8H168.1ZM148.1 297.8C148.1 309.3 142.5 314.7 134.8 314.7C129.7 314.7 126.4 311.2 126.4 305.1C126.4 298.6 129.3 295.1 136.4 293.1L148 289.8V297.8H148.1Z" fill="white"/>
<path d="M0 328.2H14.6V251.7H45.5V237.1H0V328.2Z" fill="white"/>
<path d="M282.1 311.8H279.5V275.1H264.5V328.2H284.1L323.4 291.5H326V328.2H341V275.1H321.4L282.1 311.8Z" fill="white"/>
<path d="M370.3 311.8H367.7V275.1H352.7V328.2H372.3L411.6 291.5H414.2V328.2H429.1V275.1H409.5L370.3 311.8Z" fill="white"/>
<path d="M225.3 276.9H221.5V271.4H207.9V276.9H204.1C184.8 276.9 175 283.1 175 299.8C175 316.5 184.8 322.9 204.1 322.9H207.9V328.2H221.5V323H225.3C244.6 323 254.4 316.6 254.4 299.9C254.4 283.1 244.6 276.9 225.3 276.9ZM205.1 310.2C194 310.2 189.1 307.8 189.1 299.8C189.1 291.8 194 289.6 205.1 289.6H207.8V310.2H205.1ZM224.2 310.2H221.5V289.6H224.2C235.3 289.6 240.2 291.8 240.2 299.8C240.3 307.9 235.3 310.2 224.2 310.2Z" fill="white"/>
<path d="M514.3 34.9V325.2H443.9V263.6V260.6H440.9H179.3V225.7V222.7H176.3H91.1V202.2H396.7V237.1V240.1H399.7H474.7H477.7V237.1V123.1V120.1H474.7H443.8V34.9H514.3ZM517.3 31.9H440.9V123H474.8V237H399.8V199.1H88.2V225.6H176.4V263.5H441V328.1H517.4V31.9H517.3Z" fill="white"/>
</g>
<defs>
<clipPath id="clip0_21_2157">
<rect width="518" height="329" fill="white"/>
</clipPath>
</defs>
</svg>
