<svg width="518" height="329" viewBox="0 0 518 329" fill="none" xmlns="http://www.w3.org/2000/svg">
<g clip-path="url(#clip0_21_2230)">
<path d="M30.7 171H14.6V134.5H0V225.6H14.6V185.6H29.3L58.1 225.6H76.3V223.5L44.7 179.2V176.7L76.4 137.2V134.5H59.2L30.7 171Z" fill="white"/>
<path d="M214.3 110.3C198.1 110.3 191.1 102.8 191.1 88.6H176.5C176 110.8 187.8 124.9 214.4 124.9C238.7 124.9 251.8 112.5 251.8 96.6C251.8 87.9 247.8 81.4 242.7 78.3V76C247.7 72.6 251.8 65.9 251.8 58.3C251.8 41.9 238.5 30 215.1 30C189.6 30 175.9 44.4 176.4 66.7H191C191 52.5 198.7 44.6 214.7 44.6C229.7 44.6 237.1 50 237.1 59.1C237.1 66.4 232.4 70.4 225.2 70.4H200.8V84.3H225.2C232.3 84.3 237.1 87.9 237.1 96.5C237.3 105.5 230 110.3 214.3 110.3Z" fill="white"/>
<path d="M303.8 30.1C278.3 30.1 263.4 48.7 263.4 74.1V81C263.4 107.6 277.8 124.8 303.2 124.8C325.6 124.8 341 112.4 340.7 88.6H326.1C326.1 102.8 318.8 110.3 303.2 110.3C286.5 110.3 277.9 99.2 277.9 80.6V74.4C277.9 54.8 287.2 44.6 304.5 44.6C316.9 44.6 325.6 52.4 325.6 61.3C325.6 68.2 323.1 70.4 313.8 70.4H274.5V84.2H316.3C332.1 84.2 340.1 77.3 340.1 62.2C340.1 43.4 325.9 30.1 303.8 30.1Z" fill="white"/>
<path d="M390.4 24.3C407 24.3 418.9 18.1 417.8 0.200012H404.1C404.1 8.00001 400.6 11.7 391.5 11.7C383.1 11.7 378.4 9.50001 378.4 0.200012H364.9C363.7 18.1 373.9 24.3 390.4 24.3Z" fill="white"/>
<path d="M370.6 103.2H367.7V31.9H352.7V123.1H375.2L411.3 51.8H414.2V123.1H429.1V31.9H406.7L370.6 103.2Z" fill="white"/>
<path d="M141.5 134.5H88.1001V187.7H103.1V175.3H141.5C157 175.3 164.5 168.2 164.5 154.8C164.6 141.3 157.6 134.5 141.5 134.5ZM140.1 161H103.2V148.8H140.1C147 148.8 150 149.9 150 154.8C149.9 159.9 147 161 140.1 161Z" fill="white"/>
<path d="M193.9 171.2H191.3V134.5H176.3V187.7H195.9L235.2 151H237.8V187.7H252.8V134.5H233.2L193.9 171.2Z" fill="white"/>
<path d="M341 187.7V134.5H264.5V187.7H279.1V149.1H326.4V187.7H341Z" fill="white"/>
<path d="M352.7 134.5V149.1H370.9V187.7H385.5V149.1H403.7V134.5H352.7Z" fill="white"/>
<path d="M437.4 132.3C419.6 132.3 411.7 142.1 411.7 160.7V198.7C411.7 217.3 419.5 227.1 437.4 227.1C455.2 227.1 463.1 217.3 463.1 198.7V160.7C463.1 142.2 455.2 132.3 437.4 132.3ZM448.1 196.9C448.1 208.9 445 212.5 437.4 212.5C429.8 212.5 426.7 208.9 426.7 196.9V162.5C426.7 150.5 429.8 146.9 437.4 146.9C445 146.9 448.1 150.5 448.1 162.5V196.9Z" fill="white"/>
<path d="M53.7 237.1V328.2H68.3V298.5H78.3C96.1 298.5 104.9 291.2 104.9 267.8C104.9 243.8 95.8 237.1 78.3 237.1H53.7ZM68.2 284V251.6H78C89.6 251.6 90.2 257.2 90.2 267.8C90.2 278.2 89.7 284 78 284H68.2Z" fill="white"/>
<path d="M168.1 313.8C164.1 313.8 163 312.2 163 307.4V283.6V262C163 246.4 155.7 236.2 138.4 236.2C120.4 236.2 112.7 246.4 112.7 264.6V272.4H127.6V265.9C127.6 256.3 128.9 250.8 137.8 250.8C146.7 250.8 148 256.3 148 265.9V275.5L131.4 280C119.4 283.3 111.9 291.8 111.9 306.2C111.9 320.9 120.8 328.8 131.9 328.8C139.9 328.8 146.6 325.1 150.3 319.3H152.3C153.7 325.8 158.5 328.2 163.9 328.2H169.4V313.8H168.1ZM148.1 297.8C148.1 309.3 142.5 314.7 134.8 314.7C129.7 314.7 126.4 311.2 126.4 305.1C126.4 298.6 129.3 295.1 136.4 293.1L148 289.8V297.8H148.1Z" fill="white"/>
<path d="M0 328.2H14.6V251.7H45.5V237.1H0V328.2Z" fill="white"/>
<path d="M370.3 311.8H367.7V275.1H352.7V328.2H372.3L411.6 291.5H414.2V328.2H429.1V275.1H409.5L370.3 311.8Z" fill="white"/>
<path d="M458.5 311.8H455.9V275.1H440.9V328.2H460.5L499.7 291.5H502.4V328.2H517.3V275.1H497.7L458.5 311.8Z" fill="white"/>
<path d="M313.5 276.9H309.7V271.4H296.1V276.9H292.3C273 276.9 263.2 283.1 263.2 299.8C263.2 316.5 273 322.9 292.3 322.9H296.1V328.2H309.7V323H313.5C332.8 323 342.6 316.6 342.6 299.9C342.6 283.1 332.8 276.9 313.5 276.9ZM293.3 310.2C282.2 310.2 277.3 307.8 277.3 299.8C277.3 291.8 282.2 289.6 293.3 289.6H296V310.2H293.3ZM312.4 310.2H309.7V289.6H312.4C323.5 289.6 328.4 291.8 328.4 299.8C328.4 307.9 323.5 310.2 312.4 310.2Z" fill="white"/>
<path d="M57.5 31.9L39.9 61.1H36.5L18.8 31.9H0V85.1H14.5V54.6H17.4L31.8 77H44.5L59 54.6H61.8V85.1H76.4V31.9H57.5Z" fill="white"/>
<path d="M151.6 31.9L133 54.7H127.3L105.7 31.9H87.6001V34.1L121.4 68.7C119.3 70.5 117.3 70.8 112.7 70.8H99.9001V85.1H111.6C122.6 85.1 129.1 82 135.4 74.5L169.4 34.3V31.9H151.6Z" fill="white"/>
<path d="M514.3 34.9V123V260.5H252.8H249.8V263.5V325.1H179.4V225.5V222.5H176.4H91.2V202H396.8V236.9V239.9H399.8H474.8H477.8V236.9V122.9V119.9H474.8H444.1V34.9H514.3ZM517.3 31.9H441.1V123H474.8V237H399.8V199.1H88.2V225.6H176.4V328.2H252.8V263.6H517.4V123.1V31.9H517.3Z" fill="white"/>
<path d="M161.6 99.6V120.1H3V99.6H161.6ZM164.6 96.6H0V123.1H164.6V96.6Z" fill="white"/>
</g>
<defs>
<clipPath id="clip0_21_2230">
<rect width="518" height="329" fill="white"/>
</clipPath>
</defs>
</svg>
