<svg width="520" height="330" viewBox="0 0 520 330" fill="none" xmlns="http://www.w3.org/2000/svg">
<g clip-path="url(#clip0_21_2304)">
<path d="M0 328.2H14.6V251.7H76.3V237.1H0V328.2Z" fill="white"/>
<path d="M30.7 171H14.6V134.5H0V225.6H14.6V185.6H29.3L58.1 225.6H76.3V223.5L44.7 179.2V176.7L76.4 137.2V134.5H59.2L30.7 171Z" fill="white"/>
<path d="M249.5 306V283V271C249.5 249.7 239.1 236.2 213.8 236.2C188.3 236.2 175 251.2 176.6 276H191.2C191.2 258.7 197.9 250.8 213.8 250.8C227.5 250.8 235 258.1 235 269.8V273.8L201.1 279.8C185.1 282.7 177 291.3 177 303.7C177 321.6 190.5 329.2 205.1 329.2C216.9 329.2 227.4 323.7 235.3 315.7H237.4C238.3 322.4 243.2 328.3 252.4 328.3H258.8V314H257.5C251.3 314 249.5 312 249.5 306ZM206.2 315.8C197.8 315.8 191.4 311.4 191.4 304.1C191.4 298.3 195.2 295.2 202.7 293.7L234.8 287.7V291C234.9 305.6 223 315.8 206.2 315.8Z" fill="white"/>
<path d="M132.1 134.5H88.1V225.6H102.7V195.2H132.1C153.6 195.2 164.4 184.6 164.4 164.7C164.4 144.3 153.3 134.5 132.1 134.5ZM131.9 180.6H102.7V149H131.9C143.6 149 149.8 154.1 149.8 164.7C149.8 175.2 143.6 180.6 131.9 180.6Z" fill="white"/>
<path d="M132.1 237.1H88.1V328.2H102.7V297.8H132.1C153.6 297.8 164.4 287.2 164.4 267.3C164.4 246.9 153.3 237.1 132.1 237.1ZM131.9 283.2H102.7V251.6H131.9C143.6 251.6 149.8 256.7 149.8 267.3C149.8 277.8 143.6 283.2 131.9 283.2Z" fill="white"/>
<path d="M145.7 31.8999L128 61.0999H124.7L107 31.8999H88.2V85.0999H102.7V54.5999H105.6L120 76.9999H132.7L147.2 54.5999H150V85.0999H164.6V31.8999H145.7Z" fill="white"/>
<path d="M239.8 31.8999L221.2 54.6999H215.5L193.9 31.8999H175.8V34.0999L209.6 68.6999C207.5 70.4999 205.5 70.7999 200.9 70.7999H188.1V85.0999H199.8C210.8 85.0999 217.3 81.9999 223.6 74.4999L257.6 34.2999V31.8999H239.8Z" fill="white"/>
<path d="M427.7 24.3C444.3 24.3 456.2 18.1 455.1 0.199951H441.4C441.4 7.99995 437.9 11.7 428.8 11.7C420.4 11.7 415.7 9.49995 415.7 0.199951H402.2C401.1 18.1 411.3 24.3 427.7 24.3Z" fill="white"/>
<path d="M408 103.2H405.1V31.8999H390.1V123.1H412.5L448.6 51.7999H451.6V123.1H466.5V31.8999H444.1L408 103.2Z" fill="white"/>
<path d="M314.7 58.4V55.3C314.7 40 306.1 30 289.2 30C271.4 30 263.4 39.5 263.4 58.4V66.2H278.3V60.2C278.3 49.5 280.7 44.6 289.2 44.6C297.4 44.6 299.8 49.9 299.8 56.8V58.4C299.8 66 297.8 70.4 292.2 70.4H283.8V84.4H292.2C297.8 84.4 299.8 88.4 299.8 95.7V97.7C299.8 105.9 296.3 110.3 289.2 110.3C281.9 110.3 278.3 107.4 278.3 94.7V88.7H263.4V96.5C263.4 114.7 270.7 124.9 289.1 124.9C307.3 124.9 314.8 113.6 314.8 98.3V95.8999C314.8 87.3999 312.7 82.5 308.4 79.3V75.4C312.1 72.5 314.7 67.4 314.7 58.4Z" fill="white"/>
<path d="M353.6 84.4C371.6 84.4 378.2 74.4 378.2 62.2V55.8C378.2 40.3 370.4 30 352.5 30C334.6 30 326.8 39.8 326.8 58.4V96.3999C326.8 115 334.6 124.8 352.5 124.8C370.4 124.8 378.2 115.2 378.2 96.3999V88.6H363.3V94.6C363.3 106.6 360.2 110.2 352.6 110.2C345 110.2 341.9 106.6 341.9 94.6V84.4H353.6ZM352.3 44.6C359.9 44.6 363 48.6 363 57.7V60.1C363 68.1 359.5 70.5 352.8 70.5H341.7V60.3C341.8 48.2 344.7 44.6 352.3 44.6Z" fill="white"/>
<path d="M193.9 209.2H191.3V172.5H176.3V225.6H195.9L235.2 189H237.8V225.6H252.8V172.5H233.2L193.9 209.2Z" fill="white"/>
<path d="M341 225.7V172.5H264.5V225.7H279.1V187.1H326.4V225.7H341Z" fill="white"/>
<path d="M352.7 172.5V187.1H370.9V225.7H385.5V187.1H403.7V172.5H352.7Z" fill="white"/>
<path d="M439.5 199C439.5 216.9 450.1 225.7 468.7 225.7H490.1C508.7 225.7 519.3 216.9 519.3 199C519.3 181.1 508.7 172.5 490.1 172.5H468.7C450.1 172.5 439.5 181 439.5 199ZM504.7 199C504.7 207 501 211.4 489 211.4H469.8C457.7 211.4 454.1 207 454.1 199C454.1 191 457.8 186.8 469.8 186.8H489C501 186.7 504.7 190.9 504.7 199Z" fill="white"/>
<path d="M370.3 311.8H367.7V275.1H352.7V328.2H372.3L411.6 291.5H414.2V328.2H429.1V275.1H409.5L370.3 311.8Z" fill="white"/>
<path d="M458.5 311.8H455.9V275.1H440.9V328.2H460.5L499.7 291.5H502.4V328.2H517.3V275.1H497.7L458.5 311.8Z" fill="white"/>
<path d="M313.5 276.9H309.7V271.4H296.1V276.9H292.3C273 276.9 263.2 283.1 263.2 299.8C263.2 316.5 273 322.9 292.3 322.9H296.1V328.2H309.7V323H313.5C332.8 323 342.6 316.6 342.6 299.9C342.6 283.1 332.8 276.9 313.5 276.9ZM293.3 310.2C282.2 310.2 277.3 307.8 277.3 299.8C277.3 291.8 282.2 289.6 293.3 289.6H296V310.2H293.3ZM312.4 310.2H309.7V289.6H312.4C323.5 289.6 328.4 291.8 328.4 299.8C328.4 307.9 323.5 310.2 312.4 310.2Z" fill="white"/>
<path d="M514.3 34.9V158H428.8H425.8V161V237.1V240.1H428.8H514.3V260.6H267.5V240.1H410.1H413.1V237.1V161V158H410.1H179.3V123.1V120.1H176.3H3V34.9H73.4V96.5V99.5H76.4H249.8V134.4V137.4H252.8H480.8H483.8V134.4V34.9H514.3ZM517.3 31.9H480.7V134.5H252.7V96.6H76.4V31.9H0V123H176.4V161H410.2V237.1H264.5V263.6H517.3V237.1H428.8V161H517.3V31.9Z" fill="white"/>
</g>
<defs>
<clipPath id="clip0_21_2304">
<rect width="520" height="330" fill="white"/>
</clipPath>
</defs>
</svg>
