<svg width="518" height="329" viewBox="0 0 518 329" fill="none" xmlns="http://www.w3.org/2000/svg">
<g clip-path="url(#clip0_21_2377)">
<path d="M30.7 171H14.6V134.5H0V225.6H14.6V185.6H29.3L58.1 225.6H76.3V223.5L44.7 179.2V176.7L76.4 137.2V134.5H59.2L30.7 171Z" fill="white"/>
<path d="M234.9 154.4H237.8V225.6H252.8V134.5H230.3L194.2 205.8H191.3V134.5H176.3V225.6H198.8L234.9 154.4Z" fill="white"/>
<path d="M323.1 257H326V328.2H341V237.1H318.5L282.4 308.4H279.5V237.1H264.5V328.2H287L323.1 257Z" fill="white"/>
<path d="M341 225.6V134.5H264.5V225.6H279.1V149.1H326.4V225.6H341Z" fill="white"/>
<path d="M340.2 24.3C356.8 24.3 368.7 18.1 367.6 0.200012H353.9C353.9 8.00001 350.4 11.7 341.3 11.7C332.9 11.7 328.2 9.50001 328.2 0.200012H314.7C313.6 18 323.8 24.3 340.2 24.3Z" fill="white"/>
<path d="M320.5 103.2H317.5V31.9H302.6V123.1H325L361.1 51.8H364V123.1H379V31.9H356.6L320.5 103.2Z" fill="white"/>
<path d="M224.4 240.9H221.5V231.8H207.6V240.9H204.7C181.5 240.9 174.1 258.4 174.1 278.5V282.1C174.1 302.2 181.6 319.7 204.7 319.7H207.6V328.2H221.5V319.7H224.4C247.6 319.7 255 302.2 255 282.1V278.5C255.1 258.4 247.6 240.9 224.4 240.9ZM204.4 305.5C193.1 305.5 188.7 298.4 188.7 282.9V277.8C188.7 262.3 193.1 255.2 204.4 255.2H207.7V305.5H204.4ZM240.5 282.9C240.5 298.4 236.1 305.5 224.8 305.5H221.5V255.2H224.8C236.1 255.2 240.5 262.3 240.5 277.8V282.9Z" fill="white"/>
<path d="M132.1 134.5H88.1V225.6H102.7V195.2H132.1C153.6 195.2 164.4 184.6 164.4 164.7C164.4 144.3 153.3 134.5 132.1 134.5ZM131.9 180.6H102.7V149H131.9C143.6 149 149.8 154.1 149.8 164.7C149.8 175.2 143.6 180.6 131.9 180.6Z" fill="white"/>
<path d="M134.9 79.6H123L104.9 31.9H88.1V34.6L112.7 93.9H129.2L126.2 101.5C124 107.1 122.2 108 116.4 108H104.7V122.9H116.9C130.2 122.9 136.4 118.4 140.8 108.3L169.8 34.4V31.7H153.4L134.9 79.6Z" fill="white"/>
<path d="M39.7 68.6H36.6L17.5 31.9H0V123.1H14.6V59.8H17.5L31.3 85.2H45L58.9 59.8H61.8V123.1H76.4V31.9H58.9L39.7 68.6Z" fill="white"/>
<path d="M227.8 58.5V55.4C227.8 40.1 219.2 30.1 202.3 30.1C184.5 30.1 176.5 39.6 176.5 58.5V66.3H191.4V60.3C191.4 49.6 193.8 44.7 202.3 44.7C210.5 44.7 212.9 50 212.9 56.9V58.5C212.9 66.1 210.9 70.5 205.3 70.5H196.9V84.5H205.3C210.9 84.5 212.9 88.5 212.9 95.8V97.8C212.9 106 209.4 110.4 202.3 110.4C195 110.4 191.4 107.5 191.4 94.8V88.8H176.5V96.6C176.5 114.8 183.8 125 202.2 125C220.4 125 227.9 113.7 227.9 98.4V96C227.9 87.5 225.8 82.6 221.5 79.4V75.5C225.2 72.6 227.8 67.4 227.8 58.5Z" fill="white"/>
<path d="M265.5 84.5C283.5 84.5 290.1 74.5 290.1 62.3V55.9C290.1 40.4 282.3 30.1 264.4 30.1C246.5 30.1 238.7 39.9 238.7 58.5V96.5C238.7 115.1 246.5 124.9 264.4 124.9C282.3 124.9 290.1 115.3 290.1 96.5V88.7H275.2V94.7C275.2 106.7 272.1 110.3 264.5 110.3C256.9 110.3 253.8 106.7 253.8 94.7V84.5H265.5ZM264.2 44.6C271.8 44.6 274.9 48.6 274.9 57.7V60.1C274.9 68.1 271.4 70.5 264.7 70.5H253.6V60.3C253.7 48.3 256.6 44.6 264.2 44.6Z" fill="white"/>
<path d="M429.1 134.5H352.7V149.1H383.6V187.7H398.2V149.1H429.1V134.5Z" fill="white"/>
<path d="M491.5 132.6C473.7 132.6 465.8 142.4 465.8 161V199C465.8 217.6 473.6 227.4 491.5 227.4C509.3 227.4 517.2 217.6 517.2 199V161C517.1 142.5 509.3 132.6 491.5 132.6ZM502.2 197.2C502.2 209.2 499.1 212.8 491.5 212.8C483.9 212.8 480.8 209.2 480.8 197.2V162.8C480.8 150.8 483.9 147.2 491.5 147.2C499.1 147.2 502.2 150.8 502.2 162.8V197.2Z" fill="white"/>
<path d="M53.7 237.1V328.2H68.3V298.5H78.3C96.1 298.5 104.9 291.2 104.9 267.8C104.9 243.8 95.8 237.1 78.3 237.1H53.7ZM68.2 284V251.6H78C89.6 251.6 90.2 257.2 90.2 267.8C90.2 278.2 89.7 284 78 284H68.2Z" fill="white"/>
<path d="M168.1 313.8C164.1 313.8 163 312.2 163 307.4V283.6V262C163 246.4 155.7 236.2 138.4 236.2C120.4 236.2 112.7 246.4 112.7 264.6V272.4H127.6V265.9C127.6 256.3 128.9 250.8 137.8 250.8C146.7 250.8 148 256.3 148 265.9V275.5L131.4 280C119.4 283.3 111.9 291.8 111.9 306.2C111.9 320.9 120.8 328.8 131.9 328.8C139.9 328.8 146.6 325.1 150.3 319.3H152.3C153.7 325.8 158.5 328.2 163.9 328.2H169.4V313.8H168.1ZM148.1 297.8C148.1 309.3 142.5 314.7 134.8 314.7C129.7 314.7 126.4 311.2 126.4 305.1C126.4 298.6 129.3 295.1 136.4 293.1L148 289.8V297.8H148.1Z" fill="white"/>
<path d="M370.3 311.8H367.7V275.1H352.7V328.2H372.3L411.6 291.5H414.2V328.2H429.1V275.1H409.5L370.3 311.8Z" fill="white"/>
<path d="M0 328.2H14.6V251.7H45.5V237.1H0V328.2Z" fill="white"/>
<path d="M514.3 34.9V120H456.5H453.5V123V237.1V240.1H456.5H463H514.3V309H456.7H453.7V312V320.3C453.7 323 451.5 325.1 448.9 325.1C446.2 325.1 444.1 322.9 444.1 320.3V264.9V261.9H441.1H355.8V240.1H395.5C400.3 240.1 404.2 236.2 404.2 231.4C404.2 226.6 400.3 222.7 395.5 222.7H355.8V200.9H440.9H443.9V197.9V123V120H440.9H393.1V34.9H514.3ZM421.4 86.2H485.9C490.7 86.2 494.6 82.3 494.6 77.5C494.6 72.7 490.7 68.8 485.9 68.8H421.4C416.6 68.8 412.7 72.7 412.7 77.5C412.7 82.3 416.6 86.2 421.4 86.2ZM517.3 31.9H390V123H440.8V197.8H352.7V225.6H395.4C398.6 225.6 401.1 228.2 401.1 231.3C401.1 234.5 398.5 237 395.4 237H352.7V264.8H441V320.2C441 324.5 444.5 328 448.8 328C453.1 328 456.6 324.5 456.6 320.2V312H517.2V237.1H462.9H456.5V123H517.3V31.9ZM421.4 83.2C418.2 83.2 415.7 80.6 415.7 77.5C415.7 74.4 418.3 71.8 421.4 71.8H485.9C489.1 71.8 491.6 74.4 491.6 77.5C491.6 80.6 489 83.2 485.9 83.2H421.4Z" fill="white"/>
</g>
<defs>
<clipPath id="clip0_21_2377">
<rect width="518" height="329" fill="white"/>
</clipPath>
</defs>
</svg>
