<svg width="519" height="330" viewBox="0 0 519 330" fill="none" xmlns="http://www.w3.org/2000/svg">
<g clip-path="url(#clip0_21_2449)">
<path d="M0.999901 328.2H15.5999V251.7H77.2999V237.1H0.999901V328.2Z" fill="white"/>
<path d="M250.5 306V283V271C250.5 249.7 240.1 236.2 214.8 236.2C189.3 236.2 176 251.2 177.6 276H192.2C192.2 258.7 198.9 250.8 214.8 250.8C228.5 250.8 236 258.1 236 269.8V273.8L202.1 279.8C186.1 282.7 178 291.3 178 303.7C178 321.6 191.5 329.2 206.1 329.2C217.9 329.2 228.4 323.7 236.3 315.7H238.4C239.3 322.4 244.2 328.3 253.4 328.3H259.8V314H258.5C252.3 314 250.5 312 250.5 306ZM207.2 315.8C198.8 315.8 192.4 311.4 192.4 304.1C192.4 298.3 196.2 295.2 203.7 293.7L235.8 287.7V291C235.9 305.6 224 315.8 207.2 315.8Z" fill="white"/>
<path d="M313.6 240.9H310.7V231.8H296.8V240.9H293.9C270.7 240.9 263.3 258.4 263.3 278.5V282.1C263.3 302.2 270.8 319.7 293.9 319.7H296.8V328.2H310.7V319.7H313.6C336.8 319.7 344.2 302.2 344.2 282.1V278.5C344.2 258.4 336.8 240.9 313.6 240.9ZM293.5 305.5C282.2 305.5 277.8 298.4 277.8 282.9V277.8C277.8 262.3 282.2 255.2 293.5 255.2H296.8V305.5H293.5ZM329.6 282.9C329.6 298.4 325.2 305.5 313.9 305.5H310.6V255.2H313.9C325.2 255.2 329.6 262.3 329.6 277.8V282.9Z" fill="white"/>
<path d="M133.1 134.5H89.0999V225.6H103.7V195.2H133.1C154.6 195.2 165.4 184.6 165.4 164.7C165.4 144.3 154.3 134.5 133.1 134.5ZM132.9 180.6H103.7V149H132.9C144.6 149 150.8 154.1 150.8 164.7C150.8 175.2 144.6 180.6 132.9 180.6Z" fill="white"/>
<path d="M342.5 30.0999C317 30.0999 302.1 48.6999 302.1 74.0999V80.9999C302.1 107.6 316.5 124.8 341.9 124.8C364.3 124.8 379.7 112.4 379.4 88.6H364.8C364.8 102.8 357.5 110.3 341.9 110.3C325.2 110.3 316.6 99.1999 316.6 80.5999V74.3999C316.6 54.7999 325.9 44.5999 343.2 44.5999C355.6 44.5999 364.3 52.4 364.3 61.2999C364.3 68.1999 361.8 70.3999 352.5 70.3999H313.2V84.1999H355C370.8 84.1999 378.8 77.2999 378.8 62.1999C378.9 43.3999 364.7 30.0999 342.5 30.0999Z" fill="white"/>
<path d="M429.1 24.3C445.7 24.3 457.6 18.1 456.5 0.199951H442.8C442.8 7.99995 439.3 11.7 430.2 11.7C421.8 11.7 417.1 9.49995 417.1 0.199951H403.6C402.5 18.1 412.7 24.3 429.1 24.3Z" fill="white"/>
<path d="M409.4 103.2H406.5V31.8999H391.5V123.1H413.9L450 51.7999H453V123.1H467.9V31.8999H445.5L409.4 103.2Z" fill="white"/>
<path d="M291.3 58.6V55.5C291.3 40.2 282.7 30.2 265.8 30.2C248 30.2 240 39.7 240 58.6V66.4H254.9V60.4C254.9 49.7 257.3 44.8 265.8 44.8C274 44.8 276.4 50.1 276.4 57V58.6C276.4 66.2 274.4 70.6 268.8 70.6H260.4V84.6H268.8C274.4 84.6 276.4 88.5999 276.4 95.8999V97.8999C276.4 106.1 272.9 110.5 265.8 110.5C258.5 110.5 254.9 107.6 254.9 94.8999V88.8999H240V96.7C240 114.9 247.3 125.1 265.7 125.1C283.9 125.1 291.4 113.8 291.4 98.5V96.1C291.4 87.6 289.3 82.7 285 79.5V75.6C288.7 72.8 291.3 67.6 291.3 58.6Z" fill="white"/>
<path d="M58.4999 31.8999L40.7999 61.0999H37.4999L19.7999 31.8999H0.899902V85.0999H15.4999V54.5999H18.2999L32.7999 76.9999H45.4999L59.9999 54.5999H62.7999V85.0999H77.3999V31.8999H58.4999Z" fill="white"/>
<path d="M152.6 31.8999L134 54.6999H128.3L106.7 31.8999H88.5999V34.0999L122.4 68.6999C120.3 70.4999 118.3 70.7999 113.7 70.7999H100.9V85.0999H112.6C123.6 85.0999 130.1 81.9999 136.4 74.4999L170.4 34.2999V31.8999H152.6Z" fill="white"/>
<path d="M77.4999 174.6V172.5H55.8999L31.5999 191.2H15.8999V172.5H0.999901V225.6H15.8999V205.8H30.5999L55.8999 225.6H77.4999V223.4L48.0999 200.1V196.6L77.4999 174.6Z" fill="white"/>
<path d="M194.9 209.2H192.3V172.5H177.3V225.6H196.9L236.2 189H238.8V225.6H253.8V172.5H234.2L194.9 209.2Z" fill="white"/>
<path d="M342 225.6V172.5H265.5V225.6H280.1V187H327.4V225.6H342Z" fill="white"/>
<path d="M353.7 134.5V149.1H366H371.9V225.6H386.5V149.1H392.4H404.7V134.5H353.7Z" fill="white"/>
<path d="M442.3 132.2C424.5 132.2 416.6 142 416.6 160.6V198.6C416.6 217.2 424.4 227 442.3 227C460.2 227 468 217.2 468 198.6V160.6C467.9 142 460.1 132.2 442.3 132.2ZM453 196.8C453 208.8 449.9 212.4 442.3 212.4C434.7 212.4 431.6 208.8 431.6 196.8V162.4C431.6 150.4 434.7 146.8 442.3 146.8C449.9 146.8 453 150.4 453 162.4V196.8Z" fill="white"/>
<path d="M142.5 237.1H89.0999V290.3H104.1V277.9H142.5C158 277.9 165.5 270.8 165.5 257.4C165.6 243.9 158.6 237.1 142.5 237.1ZM141.1 263.6H104.2V251.4H141.1C148 251.4 151 252.5 151 257.4C150.9 262.5 148 263.6 141.1 263.6Z" fill="white"/>
<path d="M371.3 311.8H368.7V275.1H353.7V328.2H373.3L412.6 291.5H415.2V328.2H430.1V275.1H410.5L371.3 311.8Z" fill="white"/>
<path d="M459.5 311.8H456.9V275.1H441.9V328.2H461.5L500.7 291.5H503.4V328.2H518.3V275.1H498.7L459.5 311.8Z" fill="white"/>
<path d="M162.6 304.7V325.2H92.2V304.7H162.6ZM165.6 301.7H89.2V328.2H165.6V301.7Z" fill="white"/>
<path d="M515.3 34.8999V237.1V248.8V260.5H356.7V240H481.1H484.1V237V34.8999H515.3ZM518.3 31.8999H481.1V237.1H353.7V263.6H518.3V248.9V237.2V31.8999Z" fill="white"/>
<path d="M226.2 34.8999V96.4999V123V134.4V137.4H229.2H339V158H180.3V143.5V134.5V123.1V120.1H177.3H77.3H74.3V123.1V158H4V123.1V112.3V99.5999H177.4H180.4V96.5999V34.8999H226.2ZM229.2 31.8999H177.4V96.4999H1V112.2V123V161H77.4V123.1H177.4V134.5V143.5V161H342V134.5H229.2V123.1V96.5999V31.8999Z" fill="white"/>
</g>
<defs>
<clipPath id="clip0_21_2449">
<rect width="519" height="330" fill="white"/>
</clipPath>
</defs>
</svg>
