<svg width="518" height="330" viewBox="0 0 518 330" fill="none" xmlns="http://www.w3.org/2000/svg">
<g clip-path="url(#clip0_21_2524)">
<path d="M411.3 257H414.2V328.2H429.1V237.1H406.7L370.6 308.4H367.7V237.1H352.7V328.2H375.2L411.3 257Z" fill="white"/>
<path d="M499.5 257H502.4V328.2H517.3V237.1H494.9L458.8 308.4H455.9V237.1H440.9V328.2H463.3L499.5 257Z" fill="white"/>
<path d="M249.5 306V283V271C249.5 249.7 239.1 236.2 213.8 236.2C188.3 236.2 175 251.2 176.6 276H191.2C191.2 258.7 197.9 250.8 213.8 250.8C227.5 250.8 235 258.1 235 269.8V273.8L201.1 279.8C185.1 282.7 177 291.3 177 303.7C177 321.6 190.5 329.2 205.1 329.2C216.9 329.2 227.4 323.7 235.3 315.7H237.4C238.3 322.4 243.2 328.3 252.4 328.3H258.8V314H257.5C251.3 314 249.5 312 249.5 306ZM206.2 315.8C197.8 315.8 191.4 311.4 191.4 304.1C191.4 298.3 195.2 295.2 202.7 293.7L234.8 287.7V291C234.9 305.6 223 315.8 206.2 315.8Z" fill="white"/>
<path d="M312.6 240.9H309.7V231.8H295.8V240.9H292.9C269.7 240.9 262.3 258.4 262.3 278.5V282.1C262.3 302.2 269.8 319.7 292.9 319.7H295.8V328.2H309.7V319.7H312.6C335.8 319.7 343.2 302.2 343.2 282.1V278.5C343.2 258.4 335.8 240.9 312.6 240.9ZM292.5 305.5C281.2 305.5 276.8 298.4 276.8 282.9V277.8C276.8 262.3 281.2 255.2 292.5 255.2H295.8V305.5H292.5ZM328.6 282.9C328.6 298.4 324.2 305.5 312.9 305.5H309.6V255.2H312.9C324.2 255.2 328.6 262.3 328.6 277.8V282.9Z" fill="white"/>
<path d="M39.7 68.6002H36.6L17.5 31.9002H0V123.1H14.6V59.8002H17.5L31.3 85.2002H45L58.9 59.8002H61.8V123.1H76.4V31.9002H58.9L39.7 68.6002Z" fill="white"/>
<path d="M134.9 79.6002H123L104.9 31.9002H88.1V34.6002L112.7 93.9002H129.2L126.2 101.5C124 107.1 122.2 108 116.4 108H104.7V122.9H116.9C130.2 122.9 136.4 118.4 140.8 108.3L169.8 34.4002V31.7002H153.4L134.9 79.6002Z" fill="white"/>
<path d="M390.4 24.3002C407 24.3002 418.9 18.1002 417.8 0.200195H404.1C404.1 8.0002 400.6 11.7002 391.5 11.7002C383.1 11.7002 378.4 9.5002 378.4 0.200195H364.9C363.7 18.1002 373.9 24.3002 390.4 24.3002Z" fill="white"/>
<path d="M370.6 103.2H367.7V31.9002H352.7V123.1H375.2L411.3 51.8002H414.2V123.1H429.1V31.9002H406.7L370.6 103.2Z" fill="white"/>
<path d="M278.3 58.6002V55.5002C278.3 40.2002 269.7 30.2002 252.8 30.2002C235 30.2002 227 39.7002 227 58.6002V66.4002H241.9V60.4002C241.9 49.7002 244.3 44.8002 252.8 44.8002C261 44.8002 263.4 50.1002 263.4 57.0002V58.6002C263.4 66.2002 261.4 70.6002 255.8 70.6002H247.4V84.6002H255.8C261.4 84.6002 263.4 88.6002 263.4 95.9002V97.9002C263.4 106.1 259.9 110.5 252.8 110.5C245.5 110.5 241.9 107.6 241.9 94.9002V88.9002H227V96.7002C227 114.9 234.3 125.1 252.7 125.1C270.9 125.1 278.4 113.8 278.4 98.5002V96.1002C278.4 87.6002 276.3 82.7002 272 79.5002V75.6002C275.7 72.8002 278.3 67.6002 278.3 58.6002Z" fill="white"/>
<path d="M316 84.6002C334 84.6002 340.6 74.6002 340.6 62.4002V56.0002C340.6 40.5002 332.8 30.2002 314.9 30.2002C297 30.2002 289.2 40.0002 289.2 58.6002V96.6002C289.2 115.2 297 125 314.9 125C332.8 125 340.6 115.4 340.6 96.6002V88.8002H325.7V94.8002C325.7 106.8 322.6 110.4 315 110.4C307.4 110.4 304.3 106.8 304.3 94.8002V84.6002H316ZM314.7 44.8002C322.3 44.8002 325.4 48.8002 325.4 57.9002V60.3002C325.4 68.3002 321.9 70.7002 315.2 70.7002H304.1V60.5002C304.2 48.4002 307.1 44.8002 314.7 44.8002Z" fill="white"/>
<path d="M411.9 161C411.9 178.9 422.5 187.7 441.1 187.7H462.5C481.1 187.7 491.7 178.9 491.7 161C491.7 143.1 481.1 134.5 462.5 134.5H441.1C422.5 134.5 411.9 143.1 411.9 161ZM477.1 161C477.1 169 473.4 173.4 461.4 173.4H442.2C430.1 173.4 426.5 169 426.5 161C426.5 153 430.2 148.8 442.2 148.8H461.4C473.5 148.8 477.1 153 477.1 161Z" fill="white"/>
<path d="M352.7 134.5V149.1H370.9V187.7H385.5V149.1H403.7V134.5H352.7Z" fill="white"/>
<path d="M193.9 209.1H191.3V172.5H176.3V225.6H195.9L235.2 188.9H237.8V225.6H252.8V172.5H233.2L193.9 209.1Z" fill="white"/>
<path d="M341 225.6V172.5H264.5V225.6H279.1V187H326.4V225.6H341Z" fill="white"/>
<path d="M51 137.1V134.5H35.4L23.6 171.1H14.6V134.5H0V171.1V185.7V225.6H14.6V185.7H23.5L35.4 225.6H51V223.1L37.6 179.8V176.6L51 137.1Z" fill="white"/>
<path d="M62.6 134.5V225.6H77.2V196H87.2C105 196 113.8 188.7 113.8 165.3C113.8 141.3 104.7 134.6 87.2 134.6H62.6V134.5ZM77.1 181.4V149H86.9C98.5 149 99.1 154.6 99.1 165.2C99.1 175.6 98.6 181.4 86.9 181.4H77.1Z" fill="white"/>
<path d="M0 328.2H14.6V251.7H50.9V237.1H0V328.2Z" fill="white"/>
<path d="M62.7 237.1V328.2H77.3V298.5H87.3C105.1 298.5 113.9 291.2 113.9 267.8C113.9 243.8 104.8 237.1 87.3 237.1H62.7ZM77.2 284V251.6H87C98.6 251.6 99.2 257.2 99.2 267.8C99.2 278.2 98.7 284 87 284H77.2Z" fill="white"/>
<path d="M514.3 34.8999V222.6H355.7V202.1H499.4H502.4V199.1V123V120H499.4H443.9V34.8999H514.3ZM517.3 31.8999H440.9V123H499.4V199.1H352.7V225.6H517.3V31.8999Z" fill="white"/>
<path d="M214.6 34.8999V134.5V137.5H217.6H337.9V158H164.6H161.6V161V325.2H124.6V137.5H176.4H179.4V134.5V34.8999H214.6ZM217.6 31.8999H176.3V134.5H121.5V328.2H164.5V161H340.9V134.5H217.6V31.8999Z" fill="white"/>
</g>
<defs>
<clipPath id="clip0_21_2524">
<rect width="518" height="330" fill="white"/>
</clipPath>
</defs>
</svg>
